<svg width="15" height="15" viewBox="0 0 15 15" fill="none" xmlns="http://www.w3.org/2000/svg">
<path d="M9.59391 2.26005C9.67772 2.34394 9.78237 2.40395 9.8971 2.43391C10.0118 2.46388 10.1325 2.4627 10.2466 2.4305C10.3607 2.3983 10.4642 2.33625 10.5463 2.25074C10.6285 2.16524 10.6863 2.05937 10.7139 1.94405C10.7831 1.65598 10.9279 1.39157 11.1332 1.17803C11.3386 0.964501 11.5972 0.809571 11.8823 0.729197C12.1675 0.648824 12.4689 0.645912 12.7556 0.720762C13.0422 0.795612 13.3037 0.945519 13.5132 1.15504C13.7226 1.36457 13.8725 1.62614 13.9472 1.91282C14.022 2.19949 14.019 2.50092 13.9385 2.78604C13.858 3.07117 13.703 3.32969 13.4894 3.53499C13.2758 3.74029 13.0113 3.88494 12.7232 3.95405C12.6079 3.98165 12.5021 4.0395 12.4166 4.12165C12.331 4.20379 12.269 4.30726 12.2368 4.42138C12.2046 4.5355 12.2034 4.65614 12.2334 4.77086C12.2633 4.88559 12.3234 4.99025 12.4072 5.07405L13.5292 6.19538C13.6787 6.34482 13.7972 6.52224 13.8781 6.7175C13.959 6.91276 14.0006 7.12203 14.0006 7.33338C14.0006 7.54473 13.959 7.75401 13.8781 7.94927C13.7972 8.14453 13.6787 8.32194 13.5292 8.47138L12.4072 9.59338C12.3234 9.67727 12.2188 9.73729 12.1041 9.76725C11.9893 9.79721 11.8687 9.79603 11.7546 9.76383C11.6405 9.73164 11.537 9.66958 11.4548 9.58408C11.3727 9.49857 11.3148 9.3927 11.2872 9.27738C11.218 8.98931 11.0733 8.7249 10.8679 8.51137C10.6626 8.29784 10.404 8.1429 10.1188 8.06253C9.83369 7.98216 9.53226 7.97925 9.24561 8.0541C8.95896 8.12895 8.69744 8.27885 8.48798 8.48838C8.27853 8.6979 8.12871 8.95947 8.05395 9.24615C7.9792 9.53283 7.98221 9.83425 8.06268 10.1194C8.14314 10.4045 8.29816 10.663 8.51176 10.8683C8.72536 11.0736 8.98982 11.2183 9.27791 11.2874C9.39323 11.315 9.4991 11.3728 9.58461 11.455C9.67012 11.5371 9.73217 11.6406 9.76437 11.7547C9.79656 11.8688 9.79774 11.9895 9.76778 12.1042C9.73782 12.2189 9.6778 12.3236 9.59391 12.4074L8.47191 13.5287C8.32247 13.6782 8.14506 13.7967 7.9498 13.8776C7.75454 13.9585 7.54526 14.0001 7.33391 14.0001C7.12257 14.0001 6.91329 13.9585 6.71803 13.8776C6.52277 13.7967 6.34536 13.6782 6.19591 13.5287L5.07391 12.4067C4.99011 12.3228 4.88545 12.2628 4.77073 12.2328C4.656 12.2029 4.53536 12.2041 4.42124 12.2363C4.30713 12.2685 4.20366 12.3305 4.12151 12.416C4.03937 12.5015 3.98151 12.6074 3.95391 12.7227C3.88471 13.0108 3.73997 13.2752 3.5346 13.4887C3.32923 13.7023 3.07066 13.8572 2.7855 13.9376C2.50035 14.0179 2.19893 14.0209 1.91228 13.946C1.62562 13.8712 1.3641 13.7212 1.15465 13.5117C0.945191 13.3022 0.795372 13.0406 0.720617 12.7539C0.645861 12.4673 0.648873 12.1658 0.729341 11.8807C0.80981 11.5956 0.964826 11.3371 1.17843 11.1318C1.39203 10.9265 1.65649 10.7818 1.94458 10.7127C2.0599 10.6851 2.16577 10.6273 2.25127 10.5451C2.33678 10.463 2.39883 10.3595 2.43103 10.2454C2.46323 10.1313 2.46441 10.0106 2.43445 9.8959C2.40448 9.78118 2.34447 9.67652 2.26058 9.59272L1.13858 8.47138C0.989131 8.32194 0.870581 8.14453 0.789699 7.94927C0.708818 7.75401 0.667188 7.54473 0.667188 7.33338C0.667188 7.12203 0.708818 6.91276 0.789699 6.7175C0.870581 6.52224 0.989131 6.34482 1.13858 6.19538L2.26058 5.07338C2.34438 4.9895 2.44904 4.92948 2.56377 4.89952C2.67849 4.86955 2.79913 4.87073 2.91325 4.90293C3.02737 4.93513 3.13083 4.99718 3.21298 5.08269C3.29513 5.1682 3.35298 5.27407 3.38058 5.38938C3.44978 5.67745 3.59452 5.94187 3.79989 6.1554C4.00526 6.36893 4.26384 6.52386 4.54899 6.60423C4.83414 6.68461 5.13557 6.68752 5.42222 6.61267C5.70887 6.53782 5.97039 6.38791 6.17985 6.17839C6.3893 5.96886 6.53912 5.70729 6.61388 5.42062C6.68863 5.13394 6.68562 4.83251 6.60515 4.54739C6.52468 4.26226 6.36967 4.00374 6.15607 3.79844C5.94247 3.59314 5.678 3.44849 5.38991 3.37938C5.2746 3.35178 5.16873 3.29393 5.08322 3.21178C4.99771 3.12964 4.93566 3.02617 4.90346 2.91205C4.87127 2.79793 4.87009 2.67729 4.90005 2.56257C4.93001 2.44784 4.99003 2.34318 5.07391 2.25938L6.19591 1.13805C6.34536 0.9886 6.52277 0.87005 6.71803 0.789168C6.91329 0.708286 7.12257 0.666656 7.33391 0.666656C7.54526 0.666656 7.75454 0.708286 7.9498 0.789168C8.14506 0.87005 8.32247 0.9886 8.47191 1.13805L9.59391 2.26005Z" stroke="#02621C" stroke-width="1.33333" stroke-linecap="round" stroke-linejoin="round"/>
</svg>
