<svg width="100" height="97" viewBox="0 0 100 97" fill="none" xmlns="http://www.w3.org/2000/svg">
<path d="M46.3551 74.4929C45.8875 74.4929 45.5687 74.6428 45.5687 75.0282C45.5687 76.6555 52.2425 75.6491 52.2425 80.3383C52.2425 83.2289 49.7345 84.5136 46.8227 84.5136C44.591 84.5136 42.083 83.7642 40.3827 82.4367L41.9555 79.2249C43.2733 80.3383 45.5474 81.2376 46.8652 81.2376C47.4816 81.2376 47.8854 81.0235 47.8854 80.5738C47.8854 78.8823 41.2116 79.9957 41.2116 75.4564C41.2116 72.8656 43.3795 71.2383 46.7164 71.2383C48.7568 71.2383 50.8609 71.8592 52.3275 72.7799L50.7759 76.0345C49.4794 75.3065 47.4603 74.5143 46.3551 74.5143" fill="#595A5C"/>
<path d="M60.5952 83.9341C59.9363 84.3195 58.7886 84.555 57.7259 84.555C55.4305 84.555 53.9427 83.2275 53.9427 81.1077V77.4249H52.5612V74.7912H53.9427V71.9648H58.066V74.7912H60.4252V77.4249H58.066V80.4868C58.066 81.0221 58.3848 81.3646 58.8736 81.3432C59.1074 81.3432 59.5112 81.2362 59.8938 81.0863L60.5952 83.9341V83.9341Z" fill="#595A5C"/>
<path d="M69.0756 74.0644V77.8114C67.2265 77.5331 66.015 78.1969 66.015 79.5244V84.3635H61.8705V74.2357H66.015V75.7131C66.7164 74.6639 67.7791 74.043 69.0756 74.043" fill="#595A5C"/>
<path d="M80.2553 80.2291H73.7091C73.9854 81.0213 74.5805 81.4282 75.3882 81.4282C76.0895 81.4282 76.8122 81.107 77.4285 80.5289L79.5752 82.6486C78.5125 83.8263 76.9609 84.4901 75.0268 84.4901C71.5837 84.4901 69.5433 82.4559 69.5433 79.3298C69.5433 76.2037 71.6687 74.0625 74.8993 74.0625C78.4062 74.0625 80.4679 76.4606 80.2553 80.2077V80.2291ZM74.9418 76.846C74.2192 76.846 73.7941 77.4456 73.6241 78.2806H76.132C76.1958 77.4456 75.6645 76.846 74.9631 76.846" fill="#595A5C"/>
<path d="M91.5407 80.2291H84.9945C85.2708 81.0213 85.8659 81.4282 86.6736 81.4282C87.3749 81.4282 88.0976 81.107 88.7139 80.5289L90.8606 82.6486C89.7979 83.8263 88.2464 84.4901 86.3122 84.4901C82.8691 84.4901 80.8287 82.4559 80.8287 79.3298C80.8287 76.2037 82.9541 74.0625 86.1847 74.0625C89.6916 74.0625 91.7533 76.4606 91.5407 80.2077V80.2291ZM86.2272 76.846C85.5046 76.846 85.0795 77.4456 84.9095 78.2806H87.4174C87.4812 77.4456 86.9499 76.846 86.2485 76.846" fill="#595A5C"/>
<path d="M100 83.9341C99.3412 84.3195 98.1935 84.555 97.1308 84.555C94.8353 84.555 93.3475 83.2275 93.3475 81.1077V77.4249H91.966V74.7912H93.3475V71.9648H97.4708V74.7912H99.83V77.4249H97.4708V80.4868C97.4708 81.0221 97.7896 81.3646 98.2785 81.3432C98.5123 81.3432 98.9161 81.2362 99.2987 81.0863L100 83.9341V83.9341Z" fill="#595A5C"/>
<path d="M14.1552 77.9834C14.1552 81.8376 11.1796 84.6639 7.07758 84.6639C2.97556 84.6639 0 81.859 0 77.9834C0 74.1079 2.97556 71.3672 7.07758 71.3672C11.1796 71.3672 14.1552 74.1507 14.1552 77.9834ZM4.37832 77.9834C4.37832 79.7606 5.67482 81.0667 7.14134 81.0667C8.60787 81.0667 9.79809 79.7606 9.79809 77.9834C9.79809 76.2063 8.62912 74.9216 7.14134 74.9216C5.65356 74.9216 4.37832 76.2063 4.37832 77.9834Z" fill="#595A5C"/>
<path d="M24.9519 77.9169V84.4689H20.8924V83.3769C20.2973 84.1906 19.3409 84.6617 18.0657 84.6617C15.9403 84.6617 14.7075 83.3983 14.7075 81.4713C14.7075 79.5442 16.0465 78.4094 18.597 78.388H20.8924C20.8924 77.6814 20.3398 77.2746 19.3409 77.2746C18.597 77.2746 17.428 77.4887 16.2803 77.9169L15.3664 75.1334C17.0667 74.5124 18.8308 74.1484 20.3186 74.1484C23.2304 74.1484 24.9519 75.5188 24.9519 77.8955V77.9169ZM20.8924 81.2143V80.2936H19.4684C18.8946 80.2936 18.597 80.572 18.597 81.1073C18.597 81.6426 18.9371 81.9852 19.5109 81.9852C20.0423 81.9852 20.5736 81.7068 20.9137 81.2143" fill="#595A5C"/>
<path d="M34.2618 78.2577L37.875 84.4672H32.9653L31.4138 81.2768L30.925 81.8121V84.4672H26.7804V70.7422H30.925V76.973L33.2629 74.3394H37.9175L34.2618 78.2577Z" fill="#595A5C"/>
<path d="M16.7054 89.4822H14.7075V87.6836H21.0412V89.4822H19.0221V94.5996H16.7054V89.4822Z" fill="#595A5C"/>
<path d="M26.716 92.4146H22.9965C23.0816 92.6287 23.2091 92.7786 23.3791 92.8857C23.5704 92.9927 23.7829 93.057 24.0592 93.057C24.293 93.057 24.4843 93.0356 24.6544 92.9713C24.8244 92.9071 24.9944 92.8 25.1857 92.6716L26.3334 93.8492C25.8021 94.4273 25.0369 94.7271 23.9955 94.7271C23.3579 94.7271 22.784 94.5986 22.2952 94.3631C21.8063 94.1276 21.4237 93.785 21.1474 93.3567C20.8711 92.9285 20.7436 92.4574 20.7436 91.9221C20.7436 91.3868 20.8711 90.8944 21.1474 90.4661C21.4025 90.0379 21.7851 89.7167 22.2314 89.4812C22.699 89.2457 23.2091 89.1172 23.7829 89.1172C24.3355 89.1172 24.8244 89.2242 25.2707 89.4384C25.7171 89.6525 26.0784 89.9737 26.3334 90.4019C26.5885 90.8301 26.7372 91.3226 26.7372 91.9221C26.7372 91.965 26.7372 92.1363 26.716 92.436V92.4146ZM23.2516 90.8301C23.1028 90.9586 22.9965 91.1299 22.954 91.3654H24.6756C24.6331 91.1513 24.5268 90.9586 24.3781 90.8301C24.2293 90.7017 24.038 90.6374 23.8042 90.6374C23.5704 90.6374 23.3791 90.7017 23.2303 90.8301" fill="#595A5C"/>
<path d="M28.6932 94.3415C28.2044 94.106 27.8431 93.7634 27.5668 93.3352C27.2905 92.9069 27.1629 92.4145 27.1629 91.8792C27.1629 91.3439 27.2905 90.8514 27.5668 90.4232C27.8431 89.9949 28.2044 89.6738 28.6932 89.4382C29.1821 89.2027 29.7134 89.0742 30.3298 89.0742C30.9887 89.0742 31.5413 89.2241 32.0088 89.5025C32.4764 89.7808 32.7952 90.1876 32.9653 90.6801L31.2437 91.5366C31.0312 91.0655 30.7336 90.83 30.3085 90.83C30.0535 90.83 29.8197 90.9156 29.6497 91.1083C29.4796 91.3011 29.3946 91.558 29.3946 91.8792C29.3946 92.2004 29.4796 92.4787 29.6497 92.6714C29.8197 92.8641 30.0322 92.9498 30.3085 92.9498C30.7124 92.9498 31.0312 92.7142 31.2437 92.2432L32.9653 93.0996C32.7952 93.5921 32.4764 93.9989 32.0088 94.2773C31.5413 94.5557 30.9887 94.7055 30.3298 94.7055C29.7134 94.7055 29.1821 94.5771 28.6932 94.3415Z" fill="#595A5C"/>
<path d="M38.7886 89.693C39.1925 90.0998 39.3837 90.6993 39.3837 91.513V94.5963H37.1733V91.8984C37.1733 91.2775 36.9608 90.9777 36.5145 90.9777C36.2594 90.9777 36.0681 91.0633 35.9193 91.2346C35.7706 91.4059 35.6855 91.6843 35.6855 92.0697V94.6177H33.4751V87.2734H35.6855V89.6287C36.0894 89.2647 36.5995 89.0934 37.1946 89.0934C37.8535 89.0934 38.3848 89.2862 38.7886 89.693" fill="#595A5C"/>
<path d="M45.6747 89.6953C46.0785 90.1021 46.2698 90.7017 46.2698 91.5153V94.5986H44.0594V91.9007C44.0594 91.2798 43.8468 90.98 43.4005 90.98C43.1454 90.98 42.9542 91.0657 42.8054 91.237C42.6566 91.4083 42.5716 91.6866 42.5716 92.072V94.62H40.3612V89.2028H42.4653V89.7381C42.6779 89.524 42.9117 89.3741 43.188 89.2671C43.4643 89.16 43.7618 89.1172 44.0806 89.1172C44.7395 89.1172 45.2708 89.3099 45.6747 89.7167" fill="#595A5C"/>
<path d="M48.5649 94.3415C48.0973 94.106 47.7148 93.7634 47.4597 93.3352C47.1834 92.9069 47.0559 92.4359 47.0559 91.8792C47.0559 91.3225 47.1834 90.8514 47.4597 90.4232C47.736 89.9949 48.0973 89.6738 48.5649 89.4382C49.0325 89.2027 49.5639 89.0742 50.159 89.0742C50.7541 89.0742 51.3067 89.2027 51.7743 89.4382C52.2419 89.6738 52.6244 90.0163 52.8795 90.4232C53.1345 90.8514 53.2833 91.3225 53.2833 91.8792C53.2833 92.4359 53.1558 92.9069 52.8795 93.3352C52.6244 93.7634 52.2419 94.0846 51.7743 94.3415C51.3067 94.5771 50.7541 94.7055 50.159 94.7055C49.5639 94.7055 49.0325 94.5771 48.5649 94.3415ZM50.7966 92.6714C50.9666 92.4787 51.0516 92.2218 51.0516 91.8792C51.0516 91.5366 50.9666 91.2796 50.7966 91.1083C50.6265 90.9156 50.414 90.83 50.159 90.83C49.9039 90.83 49.6914 90.9156 49.5213 91.1083C49.3513 91.3011 49.2663 91.558 49.2663 91.8792C49.2663 92.2004 49.3513 92.4787 49.5213 92.6714C49.6914 92.8641 49.9039 92.9498 50.159 92.9498C50.414 92.9498 50.6265 92.8641 50.7966 92.6714Z" fill="#595A5C"/>
<path d="M56.1954 87.2539H53.985V94.5982H56.1954V87.2539Z" fill="#595A5C"/>
<path d="M58.4279 94.3415C57.9604 94.106 57.5778 93.7634 57.3227 93.3352C57.0464 92.9069 56.9189 92.4359 56.9189 91.8792C56.9189 91.3225 57.0464 90.8514 57.3227 90.4232C57.599 89.9949 57.9604 89.6738 58.4279 89.4382C58.8955 89.2027 59.4269 89.0742 60.022 89.0742C60.6171 89.0742 61.1697 89.2027 61.6373 89.4382C62.1049 89.6738 62.4875 90.0163 62.7425 90.4232C62.9976 90.8514 63.1463 91.3225 63.1463 91.8792C63.1463 92.4359 63.0188 92.9069 62.7425 93.3352C62.4875 93.7634 62.1049 94.0846 61.6373 94.3415C61.1697 94.5771 60.6171 94.7055 60.022 94.7055C59.4269 94.7055 58.8955 94.5771 58.4279 94.3415ZM60.6596 92.6714C60.8297 92.4787 60.9147 92.2218 60.9147 91.8792C60.9147 91.5366 60.8297 91.2796 60.6596 91.1083C60.4896 90.9156 60.277 90.83 60.022 90.83C59.7669 90.83 59.5544 90.9156 59.3844 91.1083C59.2143 91.3011 59.1293 91.558 59.1293 91.8792C59.1293 92.2004 59.2143 92.4787 59.3844 92.6714C59.5544 92.8641 59.7669 92.9498 60.022 92.9498C60.277 92.9498 60.4896 92.8641 60.6596 92.6714Z" fill="#595A5C"/>
<path d="M69.8402 89.1813V93.5065C69.8402 94.5342 69.5639 95.3051 68.99 95.819C68.4162 96.3328 67.6085 96.5898 66.5671 96.5898C66.0357 96.5898 65.5256 96.5255 65.058 96.4185C64.5905 96.3114 64.2079 96.1401 63.8678 95.926L64.6117 94.4058C64.8242 94.5557 65.0793 94.6841 65.3981 94.7912C65.7169 94.8982 66.0357 94.9411 66.312 94.9411C66.7584 94.9411 67.0772 94.8554 67.2897 94.6627C67.5023 94.47 67.5873 94.1917 67.5873 93.8276V93.7206C67.2472 94.106 66.7584 94.2987 66.0995 94.2987C65.6319 94.2987 65.2068 94.1916 64.8242 93.9775C64.4204 93.7634 64.1229 93.4636 63.8678 93.0568C63.634 92.65 63.5065 92.2003 63.5065 91.6865C63.5065 91.1726 63.634 90.7229 63.8678 90.3161C64.1016 89.9307 64.4204 89.6095 64.8242 89.3954C65.2281 89.1813 65.6532 89.0742 66.0995 89.0742C66.8221 89.0742 67.3535 89.3098 67.6935 89.7808V89.1599H69.7977L69.8402 89.1813ZM67.3747 92.3074C67.5448 92.1361 67.6298 91.9434 67.6298 91.6865C67.6298 91.4295 67.5448 91.2154 67.3747 91.0655C67.2047 90.9156 66.9922 90.83 66.7159 90.83C66.4396 90.83 66.227 90.9156 66.057 91.0655C65.8869 91.2154 65.8019 91.4295 65.8019 91.6865C65.8019 91.9434 65.8869 92.1575 66.057 92.3074C66.227 92.4787 66.4608 92.5429 66.7159 92.5429C66.9709 92.5429 67.2047 92.4573 67.3747 92.3074Z" fill="#595A5C"/>
<path d="M70.9668 88.4289C70.7117 88.2148 70.6054 87.9365 70.6054 87.6153C70.6054 87.2941 70.733 87.0158 70.9668 86.8016C71.2218 86.5875 71.5406 86.4805 71.9232 86.4805C72.3058 86.4805 72.6458 86.5875 72.9009 86.7802C73.1347 86.9944 73.2622 87.2513 73.2622 87.5725C73.2622 87.9151 73.1347 88.1934 72.9009 88.4075C72.6671 88.6217 72.327 88.7287 71.9232 88.7287C71.5194 88.7287 71.2005 88.6217 70.9668 88.4075V88.4289ZM70.818 89.1569H73.0284V94.5741H70.818V89.1569Z" fill="#595A5C"/>
<path d="M79.7023 92.4146H75.9828C76.0678 92.6287 76.1954 92.7786 76.3654 92.8857C76.5567 92.9927 76.7692 93.057 77.0455 93.057C77.2793 93.057 77.4706 93.0356 77.6406 92.9713C77.8107 92.9071 77.9807 92.8 78.172 92.6716L79.3197 93.8492C78.7883 94.4273 78.0232 94.7271 76.9818 94.7271C76.3441 94.7271 75.7703 94.5986 75.2814 94.3631C74.7926 94.1276 74.41 93.785 74.1337 93.3567C73.8574 92.9285 73.7299 92.4574 73.7299 91.9221C73.7299 91.3868 73.8574 90.8944 74.1337 90.4661C74.3888 90.0379 74.7713 89.7167 75.2177 89.4812C75.6853 89.2457 76.1954 89.1172 76.7692 89.1172C77.3218 89.1172 77.8107 89.2242 78.257 89.4384C78.7033 89.6525 79.0646 89.9737 79.3197 90.4019C79.5747 90.8301 79.7235 91.3226 79.7235 91.9221C79.7235 91.965 79.7235 92.1363 79.7023 92.436V92.4146ZM76.2379 90.8301C76.0891 90.9586 75.9828 91.1299 75.9403 91.3654H77.6619C77.6194 91.1513 77.5131 90.9586 77.3643 90.8301C77.2156 90.7017 77.0243 90.6374 76.7905 90.6374C76.5567 90.6374 76.3654 90.7017 76.2166 90.8301" fill="#595A5C"/>
<path d="M81.1691 94.5538C80.7228 94.4467 80.3615 94.3182 80.0852 94.1684L80.7015 92.6909C80.9566 92.8408 81.2541 92.9693 81.5942 93.0549C81.9343 93.1406 82.2743 93.1834 82.5931 93.1834C82.8482 93.1834 83.0182 93.1834 83.1245 93.1192C83.2308 93.0764 83.2733 93.0121 83.2733 92.9265C83.2733 92.8408 83.2095 92.7766 83.082 92.7552C82.9545 92.7123 82.7419 92.6909 82.4656 92.6481C82.0193 92.6053 81.658 92.5196 81.3392 92.4554C81.0416 92.3698 80.7653 92.2199 80.5315 91.9843C80.2977 91.7488 80.1914 91.4062 80.1914 90.9566C80.1914 90.614 80.2977 90.2928 80.5103 90.0145C80.7228 89.7361 81.0416 89.522 81.4454 89.3507C81.8705 89.1794 82.3594 89.0938 82.9332 89.0938C83.337 89.0938 83.7409 89.1366 84.1234 89.2008C84.506 89.2865 84.8461 89.3935 85.1224 89.522L84.506 90.9994C84.0384 90.7425 83.5283 90.614 82.9545 90.614C82.4656 90.614 82.2318 90.6996 82.2318 90.8709C82.2318 90.9566 82.2956 91.0208 82.4231 91.0636C82.5506 91.1065 82.7632 91.1279 83.0395 91.1707C83.4858 91.2135 83.8471 91.2992 84.1447 91.3848C84.4422 91.4705 84.7185 91.6418 84.9523 91.8773C85.1861 92.1128 85.2924 92.4554 85.2924 92.9051C85.2924 93.2476 85.1861 93.5474 84.9736 93.8258C84.7611 94.1041 84.4422 94.3182 84.0384 94.4895C83.6133 94.6608 83.1032 94.7465 82.5081 94.7465C82.0405 94.7465 81.5942 94.7037 81.1479 94.5966" fill="#595A5C"/>
<path d="M87.6952 20.2342L82.403 14.9026V1.37036H56.2393C55.8142 0.556708 54.9428 0 53.9651 0C52.9874 0 52.116 0.556708 51.6697 1.39177C51.4784 1.75577 51.3721 2.18401 51.3721 2.61224C51.3721 3.04048 51.4784 3.42589 51.6484 3.76848C52.0735 4.62496 52.9449 5.22449 53.9651 5.22449C54.9853 5.22449 55.8567 4.64637 56.2818 3.7899H80.0013V15.909L85.336 21.2834V64.7066H54.9853C54.4114 63.8287 53.7738 62.4155 53.5188 62.0729C53.2 61.6233 52.7111 51.3028 52.8599 50.6604C53.0087 50.0181 53.6038 48.9046 54.1564 48.6905C54.709 48.4978 57.4083 47.8769 58.1734 47.4272C58.9598 46.9776 59.1511 45.6072 59.2999 45.1148C59.3424 44.9863 59.4912 44.8792 59.7037 44.7936C59.7037 44.8364 59.7249 44.8578 59.7462 44.9006C59.7462 44.9006 59.98 44.7936 60.235 44.5795C60.3413 44.5366 60.4476 44.4938 60.5539 44.451C60.5539 44.4724 60.5539 44.4938 60.5539 44.5366C60.7451 44.4724 60.9789 44.3225 61.234 44.0656C61.3615 43.9371 61.4678 43.8086 61.5528 43.7016C61.6166 43.6159 61.6803 43.5303 61.7441 43.4232C61.7866 43.466 61.8078 43.5303 61.8716 43.5945C61.9354 43.6587 61.9991 43.723 62.0629 43.7658C62.1904 44.087 62.4455 44.4296 62.8493 44.7508C62.8493 44.7508 63.2744 44.2155 63.2106 43.4875C63.3169 43.4875 63.4444 43.5089 63.5294 43.5303C63.8057 44.0013 64.3583 44.5366 65.3785 44.6865C65.3785 44.6865 65.3785 44.5366 65.3573 44.3011C65.591 44.4082 65.8886 44.4724 66.2074 44.5152C66.2074 44.5152 66.2074 44.0227 65.9099 43.5303C65.9736 43.4875 66.1224 43.4018 66.2712 43.2733C66.505 43.5089 66.8025 43.7444 67.2064 43.8943C66.8238 44.194 66.4837 44.6865 66.3987 45.4788C66.3987 45.4788 66.9938 45.4359 67.5677 45.0719C67.6527 45.4573 67.8227 45.8642 68.2053 46.3138C68.2053 46.3138 69.1405 45.3717 68.4603 44.0442C68.4603 44.0013 68.5028 43.9799 68.5028 43.9371C68.5879 44.0228 68.7154 44.1084 68.8429 44.194C68.8429 44.451 68.8429 46.0569 70.607 46.7206C70.607 46.7206 70.862 45.3503 69.6293 44.5366C69.7143 44.5366 69.7781 44.558 69.8844 44.5795C70.1394 44.9649 70.5432 45.3289 71.1596 45.5216C71.1596 45.5644 71.1808 45.6072 71.2021 45.65C71.2021 45.65 72.0735 45.3931 72.3498 44.4938C72.3711 44.9649 72.5624 45.5002 73.0299 46.0569C73.0299 46.0569 73.2212 45.8642 73.37 45.5216C73.54 45.7785 73.7738 46.0355 74.0926 46.2496C74.0926 46.2496 74.2839 45.8642 74.2839 45.3289C74.5177 45.5216 74.8153 45.7143 75.1766 45.8428C75.1766 45.8428 75.3254 45.0291 74.8365 44.2797C75.1341 44.451 75.5167 44.5795 75.963 44.6009C75.963 44.6009 75.963 44.4296 75.878 44.194C76.0905 44.3225 76.3031 44.4296 76.5794 44.5152C76.5794 44.5152 76.7281 43.2519 75.6442 42.4811C75.7079 42.4169 75.7717 42.3312 75.8355 42.2456C75.8355 42.2456 75.708 42.1599 75.5167 42.0743C75.5804 41.6674 75.5167 41.1536 75.1553 40.5754H75.1766C75.3041 40.6825 75.4742 40.8324 75.6867 40.9823C75.6867 41.2178 75.6867 42.8451 77.4508 43.5089C77.4508 43.5089 77.7058 42.1385 76.4731 41.3249C76.8557 41.4105 77.2807 41.4105 77.7908 41.2178C77.7908 41.2178 77.4295 40.5112 76.6644 40.19C76.9619 40.1258 77.2595 39.9759 77.5358 39.7404C77.5996 39.826 77.6846 39.8903 77.7696 39.9759C77.7696 39.9759 78.1097 39.5477 78.1947 38.9696C78.4922 39.3336 78.9598 39.6547 79.7462 39.7618C79.7462 39.7618 79.8525 38.8411 79.1511 38.2201C79.5762 38.37 80.15 38.4343 80.8514 38.2201C80.8514 38.2201 80.5539 37.4921 79.7462 37.2138C80.1288 37.0853 80.5326 36.8712 80.9152 36.4644C80.9152 36.4644 79.7462 35.6721 78.4922 36.5072H78.4072C78.7473 36.0147 79.0661 35.1154 78.5135 34.1091C78.9386 33.9806 79.3849 33.7237 79.7887 33.2526C79.7887 33.2526 78.641 32.5888 77.4933 33.3597C77.4295 33.2098 77.302 32.9957 77.132 32.7815C77.5145 32.8244 77.9821 32.7815 78.4922 32.4818C78.4922 32.4818 78.3009 32.1606 77.9184 31.8822C78.1097 31.7538 78.3009 31.6039 78.4922 31.3683C78.4922 31.3683 77.4295 30.5547 76.4093 31.1114C76.5369 30.8973 77.3445 29.634 76.0268 28.285C76.0268 28.285 75.8992 28.4135 75.7717 28.649C75.7505 28.3493 75.6442 28.0281 75.4529 27.6641C75.4529 27.6641 74.8153 28.0067 74.6027 28.6919C74.3052 28.7347 74.0714 28.8418 73.9014 29.013H73.8801C73.8801 29.013 73.8801 28.8632 73.8376 28.7989C73.8589 28.7561 73.8801 28.7133 73.9014 28.6919C73.9014 28.6919 73.7738 28.6276 73.5613 28.5848C73.4975 28.542 73.4338 28.5206 73.4125 28.4992C73.4125 28.4992 73.4125 28.542 73.3913 28.5634C73.2425 28.542 73.0725 28.5206 72.8812 28.542C72.8387 28.4992 72.7749 28.4778 72.7324 28.4778H72.6899V28.4349C72.6899 28.4349 72.8812 28.3493 72.9449 28.285C73.0299 28.2208 73.115 28.1138 73.2212 28.0067C73.0725 27.9853 72.9662 27.9639 72.8812 27.9639C72.9237 27.814 72.9237 27.6641 72.9449 27.4928C72.9662 27.45 72.9874 27.4286 72.9874 27.3857V27.2787C72.9874 27.2787 72.8812 27.2787 72.6899 27.3001C72.6261 27.3001 72.3498 27.3857 71.8822 27.5356C71.9035 27.4928 71.9247 27.4286 71.946 27.3643C71.9673 27.2145 71.9035 27.0432 71.7547 26.8505C71.6484 26.9147 71.5422 26.9789 71.4359 27.0432C71.3509 27.1074 71.2871 27.193 71.2446 27.2573C71.1808 27.2573 71.1171 27.2573 71.0533 27.2359C71.0533 27.2359 71.0321 27.2145 71.0108 27.193C70.862 27.0646 70.7558 27.0003 70.6282 26.9575C70.7345 26.722 70.777 26.4222 70.777 26.0796C70.777 26.0796 70.0756 26.0796 69.5443 26.5721C69.6081 26.5079 69.6718 26.4436 69.7143 26.358C69.5868 26.358 69.4593 26.3366 69.3743 26.3366C69.2042 26.358 69.0767 26.3794 68.9917 26.4008V26.358C68.9917 26.358 69.0555 26.2723 69.098 26.2295H69.1617C69.1617 26.2295 69.1617 26.2081 69.1617 26.1653C69.3105 25.9726 69.4168 25.8227 69.5018 25.6942C69.438 25.6728 69.353 25.6728 69.2467 25.6728C69.183 25.6728 69.1192 25.6728 69.0555 25.6942C68.9917 25.5015 68.9067 25.3088 68.7791 25.1161C68.7791 24.9448 68.7791 24.7521 68.7366 24.5594C69.1617 24.5594 69.6506 24.4523 70.2032 24.174C70.2032 24.174 69.7143 23.3603 68.6941 23.1676C69.1192 22.9535 69.5655 22.6109 69.9481 22.0542C69.9481 22.0542 68.3966 21.3262 67.0576 22.5895C67.0151 22.5895 66.9938 22.5895 66.9513 22.5895C67.2701 21.9471 67.4827 20.8123 66.6325 19.6989C67.1213 19.4634 67.5889 19.078 67.9928 18.4356C67.9928 18.4356 66.4837 17.8361 65.251 19.0137C65.1447 18.8424 64.9534 18.6069 64.6984 18.3714C65.1872 18.3714 65.7186 18.2001 66.2924 17.7718C66.2924 17.7718 65.9949 17.4078 65.4848 17.1723C65.6973 17.001 65.8886 16.7655 66.0586 16.4657C66.0586 16.4657 64.6346 15.6949 63.5294 16.5514C63.5294 16.5514 63.5294 16.5514 63.5082 16.5299C63.6357 16.273 64.3583 14.6029 62.5305 13.2325C62.5305 13.2325 62.403 13.4038 62.2967 13.7036C62.2117 13.3396 62.0416 12.9756 61.7228 12.5688C61.7228 12.5688 61.0214 13.104 60.8939 13.9819C60.5539 14.089 60.2988 14.2603 60.1288 14.5172C60.1288 14.5172 60.1288 14.5172 60.1075 14.5172C60.1075 14.4316 60.0863 14.3673 60.0225 14.2817L60.065 14.1318C60.065 14.1318 59.895 14.089 59.6399 14.0676C59.5549 14.0248 59.4912 14.0033 59.4486 13.9819C59.4486 14.0033 59.4486 14.0248 59.4274 14.0676C59.2361 14.0676 59.0448 14.0676 58.8323 14.1318C58.7685 14.089 58.7048 14.0676 58.641 14.089H58.5985C58.5985 14.089 58.7685 13.9391 58.8535 13.8321C58.9385 13.725 59.0448 13.5965 59.1298 13.4252C58.9598 13.4252 58.8323 13.4252 58.726 13.4466C58.726 13.2753 58.726 13.0826 58.726 12.8685C58.726 12.8257 58.7473 12.7829 58.7473 12.74V12.6116C58.7473 12.6116 58.5985 12.6544 58.3859 12.6972C58.3009 12.6972 57.9821 12.8471 57.4508 13.1255C57.472 13.0612 57.4933 12.997 57.4933 12.9113C57.4933 12.7186 57.387 12.5259 57.1745 12.3332C57.0469 12.4189 56.9407 12.5259 56.8344 12.633C56.7281 12.74 56.6644 12.8257 56.6219 12.9328C56.5581 12.9328 56.4731 12.9328 56.3881 12.9328C56.3668 12.9328 56.3456 12.8899 56.3243 12.8899C56.133 12.7615 55.963 12.6972 55.8142 12.6758C55.878 12.376 55.8992 12.012 55.8355 11.5838C55.8355 11.5838 54.9428 11.7337 54.3902 12.4617C54.4752 12.3546 54.539 12.2476 54.624 12.1191C54.454 12.1191 54.3052 12.1191 54.2202 12.1619C54.0289 12.2262 53.8801 12.269 53.7951 12.3118C53.7951 12.3118 53.7738 12.2904 53.7738 12.269C53.8163 12.2048 53.8801 12.1191 53.9226 12.0335C54.0714 11.7765 54.1777 11.5624 54.2627 11.3697C54.1777 11.3697 54.0926 11.3697 53.9439 11.3697C53.7101 11.4125 53.5188 11.4982 53.3275 11.6052C53.285 11.6266 53.2637 11.648 53.2212 11.6695L53.1787 11.6266C53.3487 11.0485 53.3275 10.2991 52.7749 9.42121C52.7749 9.42121 52.1373 9.82804 51.9035 10.5775C51.6909 10.192 51.3296 9.78521 50.777 9.44262C50.777 9.44262 50.3732 10.1278 50.5857 10.9843C50.4157 11.1342 50.1394 11.4125 49.9694 11.8193H49.7568C49.523 11.5196 49.2255 11.1984 48.7579 10.92C48.7579 10.92 48.4603 11.4767 48.5241 12.2048C48.4391 12.2904 48.3328 12.4403 48.2265 12.633C47.8015 12.6116 47.4401 12.633 47.1426 12.6758C47.1426 12.6758 47.1426 12.6972 47.1213 12.6972C47.1213 12.6972 47.0363 12.6544 46.9938 12.633C46.6112 12.2048 46.0374 11.8193 45.1447 11.6695C45.1447 11.6695 45.1022 12.4189 45.5698 13.104C45.1235 12.997 44.5921 12.997 43.9757 13.1683C43.9757 13.1683 44.1033 13.4895 44.4221 13.8106C44.2308 13.9391 44.0182 14.1104 43.8482 14.3245C43.7844 13.8963 43.5932 13.4252 43.1893 12.9113C43.1893 12.9113 42.1904 13.7464 42.4667 15.0311C42.1266 14.6885 41.6378 14.3888 40.9577 14.2389C40.8089 13.6393 40.4051 12.9756 39.4699 12.4403C39.4699 12.4403 39.1511 13.104 39.3424 13.9177C38.9598 13.6822 38.471 13.4895 37.8121 13.4466C37.8121 13.4466 37.8758 14.9883 39.4061 15.5664C39.3211 15.5878 39.2361 15.6306 39.1511 15.6735C39.0448 15.6949 38.9173 15.7377 38.811 15.7805C38.7685 15.6521 38.6835 15.5236 38.5772 15.3951C38.3222 15.0311 37.9821 14.817 37.5783 14.7742C37.4933 14.9455 37.4295 15.0953 37.3657 15.2238C37.1107 15.2881 36.7919 15.4165 36.4943 15.6521C36.1968 15.6092 35.8142 15.6092 35.3466 15.6521C35.2191 15.4808 35.0491 15.2881 34.8578 15.1168C34.8578 15.1168 34.3902 15.6949 34.3689 16.5085C34.0501 16.1874 33.6038 15.909 32.9874 15.7163C32.9874 15.7163 32.7961 16.6584 33.3912 17.5149C33.2 17.4078 33.1149 17.3864 33.0937 17.4292C33.0937 17.4721 33.0937 17.6434 33.0512 17.9003C33.0512 17.9431 33.0512 18.0074 33.0512 18.0716C32.3923 17.9859 31.4784 18.0716 30.6495 18.9067C30.5645 18.8424 30.5007 18.7782 30.3944 18.7354C30.3944 18.7354 29.7568 19.8702 30.4582 21.0264C30.0331 20.8123 29.4805 20.6838 28.7791 20.7481C28.4391 20.2342 27.8227 19.7203 26.8025 19.5276C26.8025 19.5276 26.7387 20.277 27.1851 20.9836C26.7387 20.8765 26.2286 20.8551 25.6123 21.0264C25.6123 21.0264 26.2286 22.6109 27.9715 22.5467C27.5464 22.7394 27.1213 23.0606 26.7387 23.6173C26.7387 23.6173 27.5676 24.0669 28.5241 23.8528C28.4603 23.9384 28.3966 24.0027 28.3328 24.1097C28.2478 24.1311 28.184 24.1526 28.1203 24.1954C28.1628 24.2168 28.184 24.2596 28.2265 24.281C28.0352 24.6236 27.8865 25.0519 27.8652 25.5872C27.8652 25.5872 28.0777 25.5872 28.3753 25.5015C28.5028 25.9083 28.6303 26.3152 28.7366 26.6792V26.722C28.7366 26.722 28.5878 26.7862 28.5241 26.829C28.2053 26.5935 27.8227 26.4222 27.3126 26.2937C27.3126 26.2937 27.2063 27.0003 27.5677 27.7069C27.4826 27.8354 27.3976 27.9639 27.3126 28.1138C27.3126 28.1138 27.5676 28.2208 27.9715 28.2636C28.099 28.3921 28.269 28.5206 28.4391 28.6276C28.4391 28.649 28.4603 28.6919 28.4816 28.7347C28.0565 28.7347 27.5464 28.8203 26.9938 29.0987C26.9938 29.0987 27.2488 29.5055 27.7589 29.8267C27.6314 29.8909 27.5251 29.9766 27.3976 30.1051C27.1426 30.1051 26.8238 30.1479 26.4624 30.2121C26.3349 30.0836 26.1861 29.9338 26.0161 29.8053C26.0161 29.8053 25.676 30.3192 25.7398 30.9829C25.4422 30.7474 25.0597 30.5547 24.5496 30.4476C24.5496 30.4476 24.4646 31.2399 25.0384 31.8822C24.8896 31.818 24.8046 31.7966 24.8046 31.8394C24.8046 31.8822 24.8046 32.0107 24.8046 32.2248C24.8046 32.2676 24.8046 32.3105 24.8046 32.3747C24.2733 32.3747 23.5081 32.5246 22.9343 33.274C22.8705 33.2312 22.7855 33.1884 22.7217 33.1455C22.7217 33.1455 22.2967 34.1305 22.9768 35.0084C22.5942 34.8799 22.1479 34.8157 21.574 34.9441C21.2552 34.5373 20.7026 34.1733 19.8312 34.1305C19.8312 34.1305 19.8312 34.7514 20.2775 35.2867C19.9162 35.2439 19.4699 35.2867 18.981 35.4794C18.981 35.4794 19.6187 36.7213 21.0427 36.5072C20.7239 36.6999 20.3838 37.0211 20.1288 37.4921C20.1288 37.4921 20.8514 37.7919 21.6165 37.5136C21.574 37.5778 21.5103 37.6634 21.4678 37.7491C21.404 37.7705 21.3402 37.7919 21.2977 37.8347C21.319 37.8347 21.3615 37.8776 21.3827 37.899C21.2552 38.1987 21.1702 38.5627 21.1915 38.991C21.1915 38.991 21.3615 38.9696 21.5953 38.8839C21.7441 39.2051 21.8716 39.5263 21.9991 39.8046C21.9991 39.8046 21.8928 39.8903 21.8291 39.9331C21.5528 39.7832 21.2127 39.6547 20.7876 39.6119C20.7876 39.6119 20.7664 40.19 21.1277 40.7467C21.0639 40.8538 21.0002 40.9823 20.9577 41.1107C20.9577 41.1107 21.1915 41.175 21.5103 41.1536C21.659 41.282 21.8716 41.3891 22.1054 41.4747C21.7015 41.4747 21.2765 41.6032 20.8089 41.903C20.8089 41.903 21.2765 42.5025 22.0841 42.6096C21.6803 42.8237 21.2977 43.1449 21.0002 43.7444C21.0002 43.7444 22.3604 44.2583 23.2956 43.1235C23.3594 43.1235 23.4231 43.1449 23.4869 43.1663C23.4869 43.2305 23.4656 43.2947 23.4444 43.359C22.2542 43.7658 22.0841 45.0291 22.0841 45.0291C22.9555 45.0291 23.5506 44.6865 23.912 44.3011V44.3653C23.5506 44.922 23.5294 45.5216 23.5294 45.5644C23.7844 45.543 24.0182 45.4788 24.2308 45.3717C24.2733 45.4359 24.3158 45.5216 24.3583 45.5858C24.3583 45.5858 24.5921 45.3931 24.8046 45.0291C24.8684 44.9863 24.9109 44.9435 24.9534 44.8792C24.9534 44.8792 25.3572 44.9649 25.8461 44.815C25.8461 44.9863 25.8461 45.179 25.8461 45.3717C25.8461 45.3717 26.2499 45.2646 26.6537 44.9649C26.6325 45.0719 26.6112 45.179 26.6112 45.286C26.6112 45.286 27.1851 45.2432 27.7377 44.8792C27.5889 45.179 27.4826 45.5858 27.4826 46.0783C27.4826 46.0783 28.5028 45.907 29.0767 44.9649C29.1192 45.2646 29.2467 45.6072 29.5018 45.9712C29.5018 45.9712 29.9906 45.5644 30.2031 44.8792C30.5645 44.7508 31.0533 44.5152 31.4146 44.0227C31.4146 44.0227 31.4146 44.0227 31.4359 44.0227C31.3934 44.087 31.3296 44.1726 31.2658 44.2583C31.1596 44.4082 31.0958 44.558 31.0746 44.6651C30.607 44.8792 30.1181 45.3289 29.8631 46.2282C29.8631 46.2282 31.1808 46.3566 31.9885 45.2432C32.0948 45.1362 32.201 45.0291 32.3073 44.9006C32.3285 44.922 32.3498 44.9435 32.3923 44.9649L32.4348 44.922C32.4348 44.922 32.4986 45.0719 32.5411 45.1576C32.201 45.4145 31.8822 45.8428 31.6909 46.5279C31.6909 46.5279 32.7961 46.6136 33.5825 45.7999C33.7951 45.9926 34.0714 46.2068 34.4327 46.3781C34.4327 46.3781 34.624 45.8428 34.4752 45.2004C34.6027 45.2646 34.7515 45.3075 34.9215 45.3503C34.9215 45.3931 34.9003 45.4359 34.879 45.4788C34.9428 45.4788 35.0278 45.4788 35.1341 45.4359C35.1766 45.4359 35.1978 45.4145 35.2191 45.3931C35.4316 45.3931 35.6654 45.3931 35.9205 45.3717V45.4359C35.9205 45.5858 35.963 45.65 36.048 45.6715L36.2818 45.5858C36.4093 45.543 36.5368 45.4573 36.6856 45.3503C36.7706 45.543 36.8769 45.7571 37.0257 45.9712C37.0257 45.9712 37.4295 45.65 37.6208 45.1362C37.6633 45.2218 37.6846 45.3075 37.7058 45.3931C37.8758 45.2861 38.0459 45.0719 38.2372 44.7722C38.4284 44.4724 38.5135 44.194 38.5135 43.9799C38.556 44.0228 38.641 44.087 38.726 44.1512C38.811 44.194 38.8748 44.2369 38.9598 44.2583C39.1723 44.5366 39.4911 44.7936 39.98 45.0077C39.98 45.0077 40.065 44.815 40.0863 44.5152C40.5326 44.6865 40.8939 44.7936 40.9577 45.0077C41.1064 45.5216 41.2977 46.8705 42.0841 47.3202C42.8705 47.7698 45.5485 48.3694 46.1011 48.5835C46.6537 48.7762 47.2489 49.8896 47.3976 50.5534C47.5464 51.2171 47.0576 61.5162 46.7388 61.9659C46.4837 62.3085 45.8673 63.7216 45.2722 64.5995H27.3976L14.4964 51.6025V27.7497L21.4465 20.7481V3.81131H42.9981C43.4231 4.66778 44.2945 5.2459 45.3147 5.2459C46.3349 5.2459 47.2063 4.66778 47.6314 3.7899C47.8015 3.44731 47.9077 3.04048 47.9077 2.63366C47.9077 2.18401 47.8015 1.77718 47.6102 1.41318C47.1851 0.57812 46.3137 0.0214118 45.3147 0.0214118C44.3158 0.0214118 43.4656 0.57812 43.0406 1.39177H19.0448V19.7417L14.5177 24.3024L12.0735 26.7648V52.6517L26.4624 67.1475H36.6431V67.0833H87.7165V27.7926H87.759V20.2984L87.7165 20.2556L87.6952 20.2342ZM53.9439 3.53295C53.4338 3.53295 53.0299 3.12613 53.0299 2.61224C53.0299 2.09836 53.4338 1.69154 53.9439 1.69154C54.454 1.69154 54.8578 2.09836 54.8578 2.61224C54.8578 3.12613 54.454 3.53295 53.9439 3.53295ZM69.3105 26.7648C69.3105 26.7648 69.3105 26.7648 69.3317 26.7434C69.2892 26.7862 69.268 26.829 69.2255 26.8719C69.1617 26.8719 69.098 26.8933 69.0555 26.9147C69.1405 26.8719 69.2042 26.829 69.2892 26.7648H69.3105ZM58.3434 44.087C58.2584 44.6865 58.0884 46.0141 57.9396 46.2282C57.7483 46.5279 56.6431 47.2559 55.6654 47.0846C55.3679 47.0418 55.0916 46.9776 54.8153 46.9348C55.3254 46.635 55.8355 46.3138 56.3243 45.9498C57.0469 45.4145 57.7271 44.7293 58.3434 44.0656V44.087ZM55.8142 44.7079C55.9417 44.4724 56.0268 44.2155 56.1118 43.9585C56.218 43.9157 56.3243 43.8729 56.4306 43.8086C56.5581 44.0227 56.7281 44.2369 56.9619 44.4724C56.8344 44.6223 56.7069 44.7936 56.5581 44.9435C56.2605 45.1576 55.9417 45.3503 55.5804 45.4145C55.4954 45.4145 55.4316 45.4359 55.3466 45.4573C55.5167 45.2218 55.6654 44.9863 55.7717 44.7508L55.8142 44.7079ZM53.6888 45.6929C53.7951 45.2004 53.8801 44.6865 53.9226 44.1726C53.9439 43.9157 53.9651 43.6373 53.9651 43.359C54.3052 43.2947 54.6665 43.1663 55.0278 42.8879C55.1553 42.8237 55.2829 42.738 55.4316 42.6524C55.4316 42.6524 55.4316 42.6952 55.4529 42.6952C55.4104 42.8237 55.3891 42.9522 55.3466 43.0592C55.0066 43.2519 54.6877 43.5517 54.3902 44.0442C54.3902 44.0442 54.5815 44.1084 54.879 44.1512C54.624 44.6651 54.3052 45.1576 53.9226 45.6072C53.9226 45.6072 53.7313 45.8213 53.6251 45.9284C53.6463 45.8428 53.6676 45.7785 53.6888 45.6929V45.6929ZM22.5305 36.3145C22.3392 36.2931 22.0629 36.2717 21.7653 36.3145C21.7441 36.2717 21.6803 36.2074 21.6165 36.1218C21.7441 36.1218 21.8716 36.1432 22.0204 36.1432C22.0204 36.1432 21.9991 35.9719 21.9141 35.7364C22.1054 35.9505 22.3604 36.1646 22.7217 36.2717C22.6792 36.2717 22.6155 36.2717 22.573 36.2931L22.5305 36.3145ZM44.5496 2.09836C44.7196 1.86283 44.9959 1.69154 45.3147 1.69154C45.8248 1.69154 46.2287 2.09836 46.2287 2.61224C46.2287 3.12613 45.8248 3.53295 45.3147 3.53295C44.9959 3.53295 44.7196 3.38307 44.5496 3.12613C44.4433 2.97625 44.4008 2.80495 44.4008 2.61224C44.4008 2.41954 44.4646 2.24824 44.5496 2.09836ZM45.6335 42.9736C45.6335 42.9736 45.6548 43.102 45.6973 43.2091C45.6973 43.359 45.6761 43.5089 45.6761 43.6587C45.6123 43.466 45.506 43.2519 45.336 43.0592C45.3147 42.9736 45.2935 42.9093 45.2722 42.8237C45.3785 42.8665 45.506 42.9307 45.6548 42.9736H45.6335ZM44.0182 43.1235C43.9332 43.2519 43.827 43.4018 43.7632 43.5517C43.7632 43.4232 43.7207 43.2947 43.6994 43.1877V43.0592C43.6994 43.0592 43.8907 43.102 43.997 43.102L44.0182 43.1235ZM43.1893 43.9585C43.1893 43.9585 43.0618 43.4875 42.6367 43.0806C42.7005 43.0378 42.8068 42.9093 42.9343 42.738C43.0618 42.8237 43.1893 42.8879 43.3381 42.9307C43.4231 43.5517 43.4444 44.194 43.5932 44.815C43.6144 44.9435 43.6994 45.3075 43.827 45.6715C43.7632 45.6715 43.6782 45.65 43.5932 45.65C43.4444 45.543 43.2744 45.4359 43.1468 45.286C42.8493 44.9863 42.6367 44.6651 42.3817 44.3439H42.4242C42.4242 44.3439 42.4029 44.194 42.2967 43.9799C42.5517 44.0228 42.8493 44.0013 43.1893 43.9585V43.9585ZM44.5921 47.1061C43.6144 47.2774 42.5092 46.5493 42.3179 46.2496C42.1904 46.0569 42.0416 45.0291 41.9566 44.3653H41.9779C41.9779 44.3653 42.0841 44.4938 42.1266 44.5795C42.2754 44.815 42.4242 45.0719 42.5942 45.286C42.9343 45.6929 43.2744 45.907 43.7207 46.1211C43.7845 46.1425 43.8482 46.1853 43.912 46.2068C44.167 46.3352 44.4433 46.3995 44.6771 46.5279C44.9959 46.6564 45.3147 46.7635 45.5698 46.9348H45.591C45.2722 46.9776 44.9534 47.0418 44.5921 47.1061V47.1061ZM46.3774 47.0204C46.1862 46.8491 45.9949 46.6778 45.8036 46.5279C45.336 46.2068 44.8471 45.9498 44.3158 45.7999C44.2733 45.7143 44.252 45.6501 44.2308 45.5644C44.167 45.3717 44.1033 45.2004 44.0608 45.0077C44.0395 44.9006 44.0182 44.815 43.997 44.7079C44.1883 44.5795 44.4433 44.4082 44.6771 44.1512C44.8471 44.4724 45.1022 44.815 45.5273 45.1148C45.6548 45.3503 45.7823 45.5858 45.9098 45.8213C46.2924 46.4637 46.7388 47.0418 47.2914 47.5343C46.9938 47.2774 46.6962 47.1061 46.4199 47.0418L46.3774 47.0204ZM48.6516 47.1703H48.5666C48.5666 47.1703 48.5453 47.1917 48.5241 47.1703H48.4603C48.1628 46.9562 47.8865 46.6992 47.6314 46.4637C46.9725 45.8642 46.3987 45.2432 46.0161 44.4296C46.0161 44.2369 46.0374 44.0227 46.0586 43.8086C46.3774 44.3011 46.9938 44.8364 48.0352 44.9435C48.0352 44.9435 47.929 43.5731 46.5262 43.0806C46.6112 43.0806 46.6962 43.0806 46.7813 43.0592C47.1001 43.3376 47.5252 43.5731 48.099 43.6159C48.1203 43.7444 48.1415 43.8515 48.184 43.9799C48.3115 44.3439 48.5241 44.6651 48.6304 45.0077C48.7791 45.4573 48.7791 45.9284 48.8216 46.3781C48.6941 46.6136 48.6516 46.8919 48.6091 47.1489L48.6516 47.1703ZM50.2457 45.6715C50.2457 45.9498 50.2244 46.2068 50.1606 46.4637C49.9906 46.7635 49.7781 47.0632 49.5868 47.3416C49.5868 47.2774 49.5868 47.2131 49.5868 47.1489C49.5868 47.0418 49.5868 46.9348 49.5868 46.9348C49.6293 46.6778 49.6506 46.3566 49.5868 46.0997C49.4593 45.5002 49.1617 44.9006 48.9279 44.3439C48.8216 44.0442 48.6941 43.7444 48.6091 43.4446C48.8216 43.2091 49.0554 42.8451 49.0767 42.3098C49.2255 42.738 49.523 43.1877 50.0756 43.5945C50.0756 43.7016 50.0756 43.7872 50.0756 43.8943C50.0969 44.2369 50.1606 44.5795 50.2244 44.9006C50.2669 45.1362 50.1819 45.4145 50.1819 45.6715H50.2457ZM51.4997 47.3416C51.4997 47.3416 51.4146 47.4701 51.3509 47.5129C51.3084 47.5557 51.2871 47.5771 51.2446 47.6199C51.2659 47.3202 51.3509 46.999 51.3509 46.8491C51.4359 46.1425 51.1171 45.4359 51.1596 44.7079C51.1808 44.0442 51.3721 43.3162 51.2021 42.6524C51.4571 42.7809 51.7547 42.8665 52.116 42.8879C52.116 42.8879 52.0948 42.5453 51.8822 42.1385C52.0097 42.0529 52.1373 41.9672 52.286 41.8387C52.2648 42.1385 52.286 42.5025 52.4348 42.9307C52.4348 42.9307 52.7961 42.7594 53.1362 42.3954C53.1362 42.5025 53.115 42.631 53.115 42.738C52.9874 42.8879 52.8599 43.0592 52.7324 43.2733C52.7324 43.2733 52.8812 43.3162 53.0937 43.359C53.0937 44.0656 53.0512 44.7508 52.7324 45.3931C52.3923 46.0783 51.9672 46.7635 51.4784 47.3416" fill="#24B34B"/>
</svg>
