<svg width="139" height="135" viewBox="0 0 139 135" fill="none" xmlns="http://www.w3.org/2000/svg">
<path d="M64.4336 103.543C63.7836 103.543 63.3405 103.752 63.3405 104.287C63.3405 106.549 72.617 105.151 72.617 111.669C72.617 115.687 69.1309 117.472 65.0835 117.472C61.9815 117.472 58.4954 116.431 56.132 114.585L58.3181 110.121C60.1498 111.669 63.3109 112.919 65.1426 112.919C65.9993 112.919 66.5607 112.621 66.5607 111.996C66.5607 109.645 57.2841 111.192 57.2841 104.883C57.2841 101.281 60.2975 99.0195 64.9358 99.0195C67.7719 99.0195 70.6967 99.8826 72.7352 101.162L70.5785 105.686C68.7764 104.674 65.9698 103.573 64.4336 103.573" fill="#595A5C"/>
<path d="M84.2273 116.668C83.3115 117.204 81.7162 117.532 80.239 117.532C77.0484 117.532 74.9804 115.686 74.9804 112.74V107.621H73.0601V103.96H74.9804V100.031H80.7117V103.96H83.991V107.621H80.7117V111.877C80.7117 112.621 81.1549 113.097 81.8344 113.067C82.1593 113.067 82.7206 112.918 83.2524 112.71L84.2273 116.668Z" fill="#595A5C"/>
<path d="M96.0151 102.948V108.156C93.4448 107.769 91.7609 108.692 91.7609 110.537V117.263H86V103.186H91.7609V105.239C92.7358 103.781 94.213 102.918 96.0151 102.918" fill="#595A5C"/>
<path d="M111.555 111.519H102.456C102.84 112.62 103.667 113.186 104.79 113.186C105.764 113.186 106.769 112.739 107.626 111.936L110.609 114.882C109.132 116.519 106.976 117.442 104.287 117.442C99.5013 117.442 96.6652 114.614 96.6652 110.269C96.6652 105.924 99.6195 102.947 104.11 102.947C108.985 102.947 111.85 106.281 111.555 111.489V111.519ZM104.169 106.816C103.165 106.816 102.574 107.65 102.337 108.81H105.824C105.912 107.65 105.174 106.816 104.199 106.816" fill="#595A5C"/>
<path d="M127.242 111.519H118.142C118.526 112.62 119.354 113.186 120.476 113.186C121.451 113.186 122.456 112.739 123.312 111.936L126.296 114.882C124.819 116.519 122.662 117.442 119.974 117.442C115.188 117.442 112.352 114.614 112.352 110.269C112.352 105.924 115.306 102.947 119.797 102.947C124.671 102.947 127.537 106.281 127.242 111.489V111.519ZM119.856 106.816C118.851 106.816 118.26 107.65 118.024 108.81H121.51C121.599 107.65 120.86 106.816 119.885 106.816" fill="#595A5C"/>
<path d="M139 116.668C138.084 117.204 136.489 117.532 135.012 117.532C131.821 117.532 129.753 115.686 129.753 112.74V107.621H127.833V103.96H129.753V100.031H135.484V103.96H138.764V107.621H135.484V111.877C135.484 112.621 135.928 113.097 136.607 113.067C136.932 113.067 137.493 112.918 138.025 112.71L139 116.668Z" fill="#595A5C"/>
<path d="M19.6757 108.396C19.6757 113.753 15.5397 117.682 9.83784 117.682C4.13603 117.682 0 113.783 0 108.396C0 103.009 4.13603 99.1992 9.83784 99.1992C15.5397 99.1992 19.6757 103.068 19.6757 108.396ZM6.08587 108.396C6.08587 110.866 7.888 112.682 9.92647 112.682C11.9649 112.682 13.6194 110.866 13.6194 108.396C13.6194 105.926 11.9945 104.14 9.92647 104.14C7.85846 104.14 6.08587 105.926 6.08587 108.396Z" fill="#595A5C"/>
<path d="M34.6833 108.307V117.414H29.0405V115.896C28.2133 117.027 26.8839 117.682 25.1113 117.682C22.157 117.682 20.4435 115.926 20.4435 113.247C20.4435 110.568 22.3047 108.991 25.8499 108.961H29.0405C29.0405 107.979 28.2724 107.414 26.8839 107.414C25.8499 107.414 24.225 107.711 22.6297 108.307L21.3593 104.437C23.7228 103.574 26.1749 103.068 28.2429 103.068C32.2903 103.068 34.6833 104.973 34.6833 108.277V108.307ZM29.0405 112.89V111.61H27.0612C26.2635 111.61 25.8499 111.997 25.8499 112.741C25.8499 113.485 26.3226 113.961 27.1202 113.961C27.8588 113.961 28.5974 113.575 29.0701 112.89" fill="#595A5C"/>
<path d="M47.6239 108.781L52.6462 117.412H45.8218L43.6651 112.977L42.9857 113.721V117.412H37.2248V98.334H42.9857V106.995L46.2354 103.334H52.7053L47.6239 108.781Z" fill="#595A5C"/>
<path d="M23.2206 124.379H20.4435V121.879H29.2473V124.379H26.4408V131.492H23.2206V124.379Z" fill="#595A5C"/>
<path d="M37.1352 128.455H31.9652C32.0834 128.752 32.2606 128.96 32.497 129.109C32.7629 129.258 33.0583 129.347 33.4424 129.347C33.7673 129.347 34.0332 129.318 34.2696 129.228C34.5059 129.139 34.7423 128.99 35.0081 128.812L36.6035 130.449C35.8649 131.252 34.8013 131.669 33.3537 131.669C32.4674 131.669 31.6698 131.49 30.9903 131.163C30.3108 130.836 29.779 130.359 29.395 129.764C29.0109 129.169 28.8336 128.514 28.8336 127.77C28.8336 127.026 29.0109 126.341 29.395 125.746C29.7495 125.151 30.2813 124.704 30.9017 124.377C31.5516 124.05 32.2606 123.871 33.0583 123.871C33.8264 123.871 34.5059 124.02 35.1263 124.318C35.7467 124.615 36.249 125.062 36.6035 125.657C36.958 126.252 37.1648 126.937 37.1648 127.77C37.1648 127.83 37.1648 128.068 37.1352 128.484V128.455ZM32.3197 126.252C32.1129 126.431 31.9652 126.669 31.9061 126.996H34.2991C34.24 126.699 34.0923 126.431 33.8855 126.252C33.6787 126.074 33.4128 125.984 33.0878 125.984C32.7629 125.984 32.497 126.074 32.2902 126.252" fill="#595A5C"/>
<path d="M39.8835 131.134C39.2041 130.807 38.7018 130.33 38.3178 129.735C37.9337 129.14 37.7564 128.455 37.7564 127.711C37.7564 126.967 37.9337 126.283 38.3178 125.688C38.7018 125.092 39.2041 124.646 39.8835 124.318C40.563 123.991 41.3016 123.812 42.1584 123.812C43.0742 123.812 43.8423 124.021 44.4923 124.408C45.1422 124.795 45.5854 125.36 45.8217 126.045L43.4287 127.235C43.1333 126.58 42.7197 126.253 42.1288 126.253C41.7743 126.253 41.4493 126.372 41.213 126.64C40.9766 126.908 40.8585 127.265 40.8585 127.711C40.8585 128.158 40.9766 128.545 41.213 128.813C41.4493 129.08 41.7448 129.2 42.1288 129.2C42.6901 129.2 43.1333 128.872 43.4287 128.217L45.8217 129.408C45.5854 130.092 45.1422 130.658 44.4923 131.045C43.8423 131.432 43.0742 131.64 42.1584 131.64C41.3016 131.64 40.563 131.461 39.8835 131.134Z" fill="#595A5C"/>
<path d="M53.9162 124.674C54.4775 125.239 54.7434 126.073 54.7434 127.204V131.489H51.6709V127.739C51.6709 126.876 51.3755 126.459 50.7551 126.459C50.4006 126.459 50.1347 126.579 49.9279 126.817C49.7211 127.055 49.6029 127.442 49.6029 127.977V131.519H46.5304V121.311H49.6029V124.584C50.1642 124.078 50.8733 123.84 51.7005 123.84C52.6163 123.84 53.3549 124.108 53.9162 124.674Z" fill="#595A5C"/>
<path d="M63.4878 124.675C64.0491 125.24 64.315 126.074 64.315 127.204V131.49H61.2425V127.74C61.2425 126.877 60.9471 126.46 60.3266 126.46C59.9721 126.46 59.7062 126.579 59.4994 126.818C59.2926 127.056 59.1745 127.443 59.1745 127.978V131.52H56.102V123.99H59.0268V124.734C59.3222 124.437 59.6472 124.228 60.0312 124.079C60.4153 123.931 60.8289 123.871 61.272 123.871C62.1879 123.871 62.9264 124.139 63.4878 124.704" fill="#595A5C"/>
<path d="M67.5053 131.134C66.8553 130.807 66.3236 130.33 65.969 129.735C65.585 129.14 65.4077 128.485 65.4077 127.711C65.4077 126.938 65.585 126.283 65.969 125.688C66.3531 125.092 66.8553 124.646 67.5053 124.318C68.1552 123.991 68.8938 123.812 69.721 123.812C70.5482 123.812 71.3163 123.991 71.9663 124.318C72.6162 124.646 73.148 125.122 73.5025 125.688C73.857 126.283 74.0638 126.938 74.0638 127.711C74.0638 128.485 73.8866 129.14 73.5025 129.735C73.148 130.33 72.6162 130.777 71.9663 131.134C71.3163 131.461 70.5482 131.64 69.721 131.64C68.8938 131.64 68.1552 131.461 67.5053 131.134ZM70.6073 128.813C70.8436 128.545 70.9618 128.188 70.9618 127.711C70.9618 127.235 70.8436 126.878 70.6073 126.64C70.371 126.372 70.0755 126.253 69.721 126.253C69.3665 126.253 69.0711 126.372 68.8347 126.64C68.5984 126.908 68.4802 127.265 68.4802 127.711C68.4802 128.158 68.5984 128.545 68.8347 128.813C69.0711 129.08 69.3665 129.2 69.721 129.2C70.0755 129.2 70.371 129.08 70.6073 128.813Z" fill="#595A5C"/>
<path d="M78.1116 121.281H75.0391V131.49H78.1116V121.281Z" fill="#595A5C"/>
<path d="M81.2149 131.134C80.5649 130.807 80.0331 130.33 79.6786 129.735C79.2946 129.14 79.1173 128.485 79.1173 127.711C79.1173 126.938 79.2946 126.283 79.6786 125.688C80.0627 125.092 80.5649 124.646 81.2149 124.318C81.8648 123.991 82.6034 123.812 83.4306 123.812C84.2578 123.812 85.0259 123.991 85.6759 124.318C86.3258 124.646 86.8576 125.122 87.2121 125.688C87.5666 126.283 87.7734 126.938 87.7734 127.711C87.7734 128.485 87.5962 129.14 87.2121 129.735C86.8576 130.33 86.3258 130.777 85.6759 131.134C85.0259 131.461 84.2578 131.64 83.4306 131.64C82.6034 131.64 81.8648 131.461 81.2149 131.134ZM84.3169 128.813C84.5532 128.545 84.6714 128.188 84.6714 127.711C84.6714 127.235 84.5532 126.878 84.3169 126.64C84.0805 126.372 83.7851 126.253 83.4306 126.253C83.0761 126.253 82.7806 126.372 82.5443 126.64C82.308 126.908 82.1898 127.265 82.1898 127.711C82.1898 128.158 82.308 128.545 82.5443 128.813C82.7806 129.08 83.0761 129.2 83.4306 129.2C83.7851 129.2 84.0805 129.08 84.3169 128.813Z" fill="#595A5C"/>
<path d="M97.0779 123.961V129.973C97.0779 131.402 96.6938 132.473 95.8962 133.188C95.0985 133.902 93.9759 134.259 92.5283 134.259C91.7897 134.259 91.0806 134.17 90.4307 134.021C89.7807 133.872 89.249 133.634 88.7763 133.336L89.8103 131.223C90.1057 131.432 90.4602 131.61 90.9034 131.759C91.3465 131.908 91.7897 131.967 92.1737 131.967C92.7941 131.967 93.2373 131.848 93.5327 131.581C93.8281 131.313 93.9463 130.926 93.9463 130.42V130.271C93.4736 130.807 92.7941 131.075 91.8783 131.075C91.2284 131.075 90.6375 130.926 90.1057 130.628C89.5444 130.33 89.1308 129.914 88.7763 129.348C88.4513 128.783 88.274 128.158 88.274 127.444C88.274 126.729 88.4513 126.104 88.7763 125.539C89.1013 125.003 89.5444 124.557 90.1057 124.259C90.667 123.961 91.2579 123.812 91.8783 123.812C92.8828 123.812 93.6213 124.14 94.094 124.795V123.932H97.0188L97.0779 123.961ZM93.6509 128.307C93.8872 128.069 94.0054 127.801 94.0054 127.444C94.0054 127.086 93.8872 126.789 93.6509 126.58C93.4145 126.372 93.1191 126.253 92.7351 126.253C92.351 126.253 92.0556 126.372 91.8192 126.58C91.5829 126.789 91.4647 127.086 91.4647 127.444C91.4647 127.801 91.5829 128.098 91.8192 128.307C92.0556 128.545 92.3805 128.634 92.7351 128.634C93.0896 128.634 93.4145 128.515 93.6509 128.307Z" fill="#595A5C"/>
<path d="M98.6438 122.919C98.2893 122.622 98.1415 122.235 98.1415 121.788C98.1415 121.342 98.3188 120.955 98.6438 120.657C98.9983 120.36 99.4414 120.211 99.9732 120.211C100.505 120.211 100.978 120.36 101.332 120.628C101.657 120.925 101.834 121.282 101.834 121.729C101.834 122.205 101.657 122.592 101.332 122.89C101.007 123.187 100.535 123.336 99.9732 123.336C99.4119 123.336 98.9687 123.187 98.6438 122.89V122.919ZM98.437 123.931H101.509V131.461H98.437V123.931Z" fill="#595A5C"/>
<path d="M110.786 128.455H105.616C105.734 128.752 105.911 128.96 106.148 129.109C106.414 129.258 106.709 129.347 107.093 129.347C107.418 129.347 107.684 129.318 107.92 129.228C108.157 129.139 108.393 128.99 108.659 128.812L110.254 130.449C109.516 131.252 108.452 131.669 107.005 131.669C106.118 131.669 105.321 131.49 104.641 131.163C103.962 130.836 103.43 130.359 103.046 129.764C102.662 129.169 102.484 128.514 102.484 127.77C102.484 127.026 102.662 126.341 103.046 125.746C103.4 125.151 103.932 124.704 104.553 124.377C105.202 124.05 105.911 123.871 106.709 123.871C107.477 123.871 108.157 124.02 108.777 124.318C109.398 124.615 109.9 125.062 110.254 125.657C110.609 126.252 110.816 126.937 110.816 127.77C110.816 127.83 110.816 128.068 110.786 128.484V128.455ZM105.971 126.252C105.764 126.431 105.616 126.669 105.557 126.996H107.95C107.891 126.699 107.743 126.431 107.536 126.252C107.33 126.074 107.064 125.984 106.739 125.984C106.414 125.984 106.148 126.074 105.941 126.252" fill="#595A5C"/>
<path d="M112.825 131.431C112.205 131.282 111.702 131.104 111.318 130.895L112.175 128.842C112.53 129.05 112.943 129.229 113.416 129.348C113.889 129.467 114.361 129.526 114.804 129.526C115.159 129.526 115.395 129.526 115.543 129.437C115.691 129.378 115.75 129.288 115.75 129.169C115.75 129.05 115.661 128.961 115.484 128.931C115.307 128.872 115.011 128.842 114.627 128.782C114.007 128.723 113.505 128.604 113.061 128.515C112.648 128.395 112.264 128.187 111.939 127.86C111.614 127.532 111.466 127.056 111.466 126.431C111.466 125.955 111.614 125.508 111.909 125.122C112.205 124.735 112.648 124.437 113.209 124.199C113.8 123.961 114.479 123.842 115.277 123.842C115.838 123.842 116.4 123.901 116.932 123.991C117.463 124.11 117.936 124.258 118.32 124.437L117.463 126.491C116.813 126.134 116.104 125.955 115.307 125.955C114.627 125.955 114.302 126.074 114.302 126.312C114.302 126.431 114.391 126.52 114.568 126.58C114.745 126.639 115.041 126.669 115.425 126.729C116.045 126.788 116.547 126.907 116.961 127.026C117.375 127.145 117.759 127.384 118.084 127.711C118.409 128.038 118.556 128.515 118.556 129.14C118.556 129.616 118.409 130.032 118.113 130.419C117.818 130.806 117.375 131.104 116.813 131.342C116.223 131.58 115.513 131.699 114.686 131.699C114.036 131.699 113.416 131.64 112.796 131.491" fill="#595A5C"/>
<path d="M121.896 28.1255L114.54 20.7147V1.9048H78.1726C77.5818 0.773824 76.3705 0 75.0115 0C73.6525 0 72.4413 0.773824 71.8209 1.93456C71.555 2.44052 71.4073 3.03577 71.4073 3.63102C71.4073 4.22627 71.555 4.762 71.7913 5.23819C72.3822 6.42869 73.5934 7.26204 75.0115 7.26204C76.4296 7.26204 77.6409 6.45846 78.2317 5.26796H111.202V22.1135L118.617 29.5839V89.9422H76.4296C75.6319 88.7219 74.7456 86.7576 74.3911 86.2814C73.948 85.6564 73.2685 71.3109 73.4753 70.418C73.6821 69.5251 74.5093 67.9775 75.2774 67.6799C76.0455 67.412 79.7975 66.5489 80.861 65.9239C81.9541 65.2989 82.22 63.3941 82.4268 62.7095C82.4859 62.5309 82.6927 62.3821 82.9881 62.2631C82.9881 62.3226 83.0177 62.3524 83.0472 62.4119C83.0472 62.4119 83.3722 62.2631 83.7267 61.9655C83.8744 61.9059 84.0221 61.8464 84.1699 61.7869C84.1699 61.8167 84.1699 61.8464 84.1699 61.9059C84.4358 61.8167 84.7607 61.6083 85.1152 61.2512C85.2925 61.0726 85.4402 60.894 85.5584 60.7452C85.647 60.6262 85.7356 60.5071 85.8243 60.3583C85.8834 60.4178 85.9129 60.5071 86.0015 60.5964C86.0902 60.6857 86.1788 60.775 86.2674 60.8345C86.4447 61.2809 86.7992 61.7571 87.3605 62.2036C87.3605 62.2036 87.9514 61.4595 87.8627 60.4476C88.0105 60.4476 88.1877 60.4773 88.3059 60.5071C88.69 61.1619 89.4581 61.9059 90.8761 62.1143C90.8761 62.1143 90.8761 61.9059 90.8466 61.5786C91.1716 61.7274 91.5852 61.8167 92.0283 61.8762C92.0283 61.8762 92.0283 61.1916 91.6147 60.5071C91.7033 60.4476 91.9101 60.3285 92.117 60.15C92.4419 60.4773 92.8555 60.8047 93.4168 61.0131C92.8851 61.4297 92.4124 62.1143 92.2942 63.2155C92.2942 63.2155 93.1214 63.156 93.9191 62.65C94.0372 63.1857 94.2736 63.7512 94.8054 64.3762C94.8054 64.3762 96.1053 63.0667 95.1599 61.2214C95.1599 61.1619 95.219 61.1321 95.219 61.0726C95.3371 61.1916 95.5144 61.3107 95.6917 61.4297C95.6917 61.7869 95.6917 64.0191 98.1437 64.9417C98.1437 64.9417 98.4983 63.0369 96.7848 61.9059C96.9029 61.9059 96.9916 61.9357 97.1393 61.9655C97.4938 62.5012 98.0551 63.0072 98.9118 63.275C98.9118 63.3345 98.9414 63.3941 98.9709 63.4536C98.9709 63.4536 100.182 63.0964 100.566 61.8464C100.596 62.5012 100.862 63.2453 101.512 64.0191C101.512 64.0191 101.778 63.7512 101.984 63.275C102.221 63.6322 102.546 63.9893 102.989 64.2869C102.989 64.2869 103.255 63.7512 103.255 63.0072C103.58 63.275 103.993 63.5429 104.495 63.7215C104.495 63.7215 104.702 62.5905 104.023 61.5488C104.436 61.7869 104.968 61.9655 105.589 61.9952C105.589 61.9952 105.589 61.7571 105.47 61.4297C105.766 61.6083 106.061 61.7571 106.445 61.8762C106.445 61.8762 106.652 60.1202 105.145 59.0487C105.234 58.9595 105.323 58.8404 105.411 58.7214C105.411 58.7214 105.234 58.6023 104.968 58.4833C105.057 57.9178 104.968 57.2035 104.466 56.3999H104.495C104.673 56.5487 104.909 56.757 105.205 56.9654C105.205 57.2928 105.205 59.5547 107.657 60.4773C107.657 60.4773 108.011 58.5725 106.298 57.4416C106.829 57.5606 107.42 57.5606 108.129 57.2928C108.129 57.2928 107.627 56.3106 106.564 55.8642C106.977 55.7749 107.391 55.5665 107.775 55.2391C107.863 55.3582 107.982 55.4475 108.1 55.5665C108.1 55.5665 108.572 54.9713 108.691 54.1677C109.104 54.6737 109.754 55.1201 110.847 55.2689C110.847 55.2689 110.995 53.9891 110.02 53.126C110.611 53.3343 111.409 53.4236 112.383 53.126C112.383 53.126 111.97 52.1141 110.847 51.7272C111.379 51.5486 111.94 51.251 112.472 50.6855C112.472 50.6855 110.847 49.5843 109.104 50.745H108.986C109.459 50.0605 109.902 48.8105 109.134 47.4116C109.725 47.233 110.345 46.8759 110.906 46.2211C110.906 46.2211 109.311 45.2985 107.716 46.3699C107.627 46.1616 107.45 45.864 107.213 45.5663C107.745 45.6259 108.395 45.5663 109.104 45.1497C109.104 45.1497 108.838 44.7032 108.307 44.3163C108.572 44.1377 108.838 43.9294 109.104 43.602C109.104 43.602 107.627 42.471 106.209 43.2449C106.386 42.9472 107.509 41.1913 105.677 39.3162C105.677 39.3162 105.5 39.4948 105.323 39.8222C105.293 39.4055 105.145 38.9591 104.88 38.4531C104.88 38.4531 103.993 38.9293 103.698 39.8817C103.284 39.9412 102.959 40.09 102.723 40.3281H102.693C102.693 40.3281 102.693 40.1198 102.634 40.0305C102.664 39.971 102.693 39.9115 102.723 39.8817C102.723 39.8817 102.546 39.7924 102.25 39.7329C102.162 39.6734 102.073 39.6436 102.043 39.6138C102.043 39.6138 102.043 39.6734 102.014 39.7031C101.807 39.6734 101.571 39.6436 101.305 39.6734C101.246 39.6138 101.157 39.5841 101.098 39.5841H101.039V39.5246C101.039 39.5246 101.305 39.4055 101.393 39.3162C101.512 39.2269 101.63 39.0781 101.778 38.9293C101.571 38.8995 101.423 38.8698 101.305 38.8698C101.364 38.6614 101.364 38.4531 101.393 38.215C101.423 38.1555 101.453 38.1257 101.453 38.0662V37.9174C101.453 37.9174 101.305 37.9174 101.039 37.9472C100.95 37.9472 100.566 38.0662 99.9163 38.2745C99.9459 38.215 99.9754 38.1257 100.005 38.0364C100.034 37.8281 99.9459 37.59 99.7391 37.3221C99.5913 37.4114 99.4436 37.5007 99.2959 37.59C99.1777 37.6793 99.0891 37.7983 99.03 37.8876C98.9414 37.8876 98.8528 37.8876 98.7641 37.8579C98.7641 37.8579 98.7346 37.8281 98.705 37.7983C98.4982 37.6198 98.3505 37.5305 98.1733 37.471C98.321 37.1436 98.3801 36.7269 98.3801 36.2507C98.3801 36.2507 97.4052 36.2507 96.6666 36.9352C96.7552 36.8459 96.8438 36.7567 96.9029 36.6376C96.7257 36.6376 96.5484 36.6078 96.4302 36.6078C96.1939 36.6376 96.0166 36.6674 95.8985 36.6971V36.6376C95.8985 36.6376 95.9871 36.5186 96.0462 36.459H96.1348C96.1348 36.459 96.1348 36.4293 96.1348 36.3697C96.3416 36.1019 96.4893 35.8935 96.6075 35.715C96.5189 35.6852 96.4007 35.6852 96.253 35.6852C96.1644 35.6852 96.0757 35.6852 95.9871 35.715C95.8985 35.4471 95.7803 35.1792 95.603 34.9114C95.603 34.6733 95.603 34.4054 95.5439 34.1376C96.1348 34.1376 96.8143 33.9887 97.5824 33.6018C97.5824 33.6018 96.9029 32.4709 95.4849 32.203C96.0757 31.9054 96.6961 31.4292 97.2279 30.6553C97.2279 30.6553 95.0713 29.6434 93.21 31.3994C93.151 31.3994 93.1214 31.3994 93.0623 31.3994C93.5055 30.5065 93.8009 28.9291 92.6192 27.3815C93.2987 27.0541 93.9486 26.5184 94.5099 25.6255C94.5099 25.6255 92.4124 24.7921 90.6989 26.4291C90.5512 26.191 90.2853 25.8636 89.9308 25.5362C90.6103 25.5362 91.3488 25.2981 92.1465 24.7029C92.1465 24.7029 91.7329 24.1969 91.0239 23.8695C91.3193 23.6314 91.5852 23.304 91.8215 22.8873C91.8215 22.8873 89.8421 21.8159 88.3059 23.0064C88.3059 23.0064 88.3059 23.0064 88.2764 22.9766C88.4536 22.6195 89.4581 20.298 86.9174 18.3932C86.9174 18.3932 86.7401 18.6313 86.5924 19.048C86.4742 18.542 86.2379 18.0361 85.7947 17.4706C85.7947 17.4706 84.8198 18.2146 84.6426 19.4349C84.1699 19.5837 83.8153 19.8218 83.579 20.179C83.579 20.179 83.579 20.179 83.5495 20.179C83.5495 20.0599 83.5199 19.9706 83.4313 19.8516L83.4904 19.6432C83.4904 19.6432 83.254 19.5837 82.8995 19.5539C82.7813 19.4944 82.6927 19.4647 82.6336 19.4349C82.6336 19.4647 82.6336 19.4944 82.6041 19.5539C82.3382 19.5539 82.0723 19.5539 81.7769 19.6432C81.6882 19.5837 81.5996 19.5539 81.511 19.5837H81.4519C81.4519 19.5837 81.6882 19.3754 81.8064 19.2266C81.9246 19.0777 82.0723 18.8992 82.1905 18.6611C81.9541 18.6611 81.7769 18.6611 81.6292 18.6908C81.6292 18.4527 81.6292 18.1849 81.6292 17.8872C81.6292 17.8277 81.6587 17.7682 81.6587 17.7087V17.5301C81.6587 17.5301 81.4519 17.5896 81.1565 17.6491C81.0383 17.6491 80.5952 17.8575 79.8566 18.2444C79.8861 18.1551 79.9157 18.0658 79.9157 17.9468C79.9157 17.6789 79.768 17.411 79.4725 17.1432C79.2953 17.2622 79.1475 17.411 78.9998 17.5599C78.8521 17.7087 78.7635 17.8277 78.7044 17.9765C78.6158 17.9765 78.4976 17.9765 78.3794 17.9765C78.3499 17.9765 78.3203 17.917 78.2908 17.917C78.0249 17.7384 77.7886 17.6491 77.5818 17.6194C77.6704 17.2027 77.6999 16.6967 77.6113 16.1015C77.6113 16.1015 76.3705 16.3098 75.6024 17.3218C75.7205 17.1729 75.8092 17.0241 75.9273 16.8456C75.691 16.8456 75.4842 16.8456 75.366 16.9051C75.1001 16.9944 74.8933 17.0539 74.7752 17.1134C74.7752 17.1134 74.7456 17.0837 74.7456 17.0539C74.8047 16.9646 74.8933 16.8456 74.9524 16.7265C75.1592 16.3694 75.3069 16.0717 75.4251 15.8039C75.3069 15.8039 75.1888 15.8039 74.982 15.8039C74.657 15.8634 74.3911 15.9824 74.1252 16.1313C74.0661 16.161 74.0366 16.1908 73.9775 16.2205L73.9184 16.161C74.1548 15.3574 74.1252 14.3157 73.3571 13.0955C73.3571 13.0955 72.4708 13.661 72.1458 14.7027C71.8504 14.1669 71.3482 13.6014 70.5801 13.1252C70.5801 13.1252 70.0187 14.0776 70.3142 15.2681C70.0778 15.4765 69.6938 15.8634 69.4574 16.4289H69.162C68.837 16.0122 68.4234 15.5658 67.7735 15.1789C67.7735 15.1789 67.3599 15.9527 67.4485 16.9646C67.3303 17.0837 67.1826 17.292 67.0349 17.5599C66.444 17.5301 65.9418 17.5599 65.5282 17.6194C65.5282 17.6194 65.5282 17.6491 65.4986 17.6491C65.4986 17.6491 65.3805 17.5896 65.3214 17.5599C64.7896 16.9646 63.992 16.4289 62.7511 16.2205C62.7511 16.2205 62.6921 17.2622 63.342 18.2146C62.7216 18.0658 61.983 18.0658 61.1263 18.3039C61.1263 18.3039 61.3035 18.7504 61.7467 19.1968C61.4808 19.3754 61.1854 19.6135 60.949 19.9111C60.8604 19.3158 60.5945 18.6611 60.0332 17.9468C60.0332 17.9468 58.6447 19.1075 59.0287 20.8933C58.556 20.4171 57.8765 20.0004 56.9312 19.792C56.7244 18.9587 56.163 18.0361 54.8631 17.292C54.8631 17.292 54.42 18.2146 54.6859 19.3456C54.1541 19.0182 53.4746 18.7504 52.5588 18.6908C52.5588 18.6908 52.6474 20.8337 54.7745 21.6373C54.6563 21.6671 54.5382 21.7266 54.42 21.7861C54.2723 21.8159 54.095 21.8754 53.9473 21.9349C53.8882 21.7564 53.7701 21.5778 53.6223 21.3992C53.2678 20.8933 52.7951 20.5956 52.2338 20.5361C52.1156 20.7742 52.027 20.9825 51.9384 21.1611C51.5839 21.2504 51.1407 21.429 50.7271 21.7564C50.3135 21.6968 49.7817 21.6968 49.1318 21.7564C48.9545 21.5183 48.7182 21.2504 48.4523 21.0123C48.4523 21.0123 47.8024 21.8159 47.7728 22.9469C47.3297 22.5004 46.7093 22.1135 45.8525 21.8457C45.8525 21.8457 45.5866 23.1552 46.4138 24.3457C46.1479 24.1969 46.0298 24.1671 46.0002 24.2267C46.0002 24.2862 46.0002 24.5243 45.9411 24.8814C45.9411 24.941 45.9411 25.0302 45.9411 25.1195C45.0253 25.0005 43.755 25.1195 42.6028 26.2803C42.4846 26.191 42.396 26.1017 42.2483 26.0422C42.2483 26.0422 41.362 27.6196 42.3369 29.2267C41.746 28.9291 40.9779 28.7505 40.003 28.8398C39.5303 28.1255 38.6735 27.4112 37.2555 27.1434C37.2555 27.1434 37.1668 28.1851 37.7873 29.1672C37.1668 29.0184 36.4578 28.9886 35.6011 29.2267C35.6011 29.2267 36.4578 31.4292 38.8803 31.3399C38.2895 31.6077 37.6986 32.0542 37.1668 32.828C37.1668 32.828 38.319 33.453 39.6485 33.1554C39.5598 33.2744 39.4712 33.3637 39.3826 33.5125C39.2644 33.5423 39.1758 33.5721 39.0871 33.6316C39.1462 33.6614 39.1758 33.7209 39.2349 33.7506C38.969 34.2268 38.7622 34.8221 38.7326 35.5662C38.7326 35.5662 39.0281 35.5662 39.4417 35.4471C39.6189 36.0126 39.7962 36.5781 39.9439 37.084V37.1436C39.9439 37.1436 39.7371 37.2328 39.6485 37.2924C39.2053 36.965 38.6735 36.7269 37.9645 36.5483C37.9645 36.5483 37.8168 37.5305 38.319 38.5126C38.2009 38.6912 38.0827 38.8698 37.9645 39.0781C37.9645 39.0781 38.319 39.2269 38.8803 39.2865C39.0576 39.465 39.294 39.6436 39.5303 39.7924C39.5303 39.8222 39.5598 39.8817 39.5894 39.9412C38.9985 39.9412 38.2895 40.0603 37.5214 40.4472C37.5214 40.4472 37.8759 41.0127 38.5849 41.4591C38.4077 41.5484 38.2599 41.6675 38.0827 41.846C37.7282 41.846 37.285 41.9056 36.7828 41.9948C36.6055 41.8163 36.3987 41.6079 36.1624 41.4294C36.1624 41.4294 35.6897 42.1437 35.7783 43.0663C35.3647 42.7389 34.8329 42.471 34.1239 42.3222C34.1239 42.3222 34.0057 43.4234 34.8034 44.3163C34.5966 44.227 34.4784 44.1973 34.4784 44.2568C34.4784 44.3163 34.4784 44.4949 34.4784 44.7925C34.4784 44.852 34.4784 44.9116 34.4784 45.0009C33.7399 45.0009 32.6763 45.2092 31.8786 46.2509C31.79 46.1914 31.6718 46.1318 31.5832 46.0723C31.5832 46.0723 30.9923 47.4414 31.9377 48.6616C31.406 48.4831 30.7855 48.3938 29.9879 48.5723C29.5447 48.0069 28.7766 47.5009 27.5654 47.4414C27.5654 47.4414 27.5654 48.3045 28.1858 49.0485C27.6835 48.989 27.0631 49.0485 26.3836 49.3164C26.3836 49.3164 27.2699 51.0426 29.2493 50.745C28.8062 51.0129 28.3335 51.4593 27.979 52.1141C27.979 52.1141 28.9834 52.5308 30.047 52.1438C29.9879 52.2331 29.8993 52.3522 29.8402 52.4712C29.7515 52.501 29.6629 52.5308 29.6038 52.5903C29.6334 52.5903 29.6925 52.6498 29.722 52.6796C29.5447 53.0962 29.4266 53.6022 29.4561 54.1975C29.4561 54.1975 29.6925 54.1677 30.0174 54.0486C30.2242 54.4951 30.4015 54.9415 30.5787 55.3284C30.5787 55.3284 30.431 55.4475 30.3424 55.507C29.9583 55.2987 29.4857 55.1201 28.8948 55.0606C28.8948 55.0606 28.8652 55.8642 29.3675 56.638C29.2789 56.7868 29.1902 56.9654 29.1311 57.1439C29.1311 57.1439 29.4561 57.2332 29.8993 57.2035C30.1061 57.382 30.4015 57.5309 30.7265 57.6499C30.1651 57.6499 29.5743 57.8285 28.9243 58.2452C28.9243 58.2452 29.5743 59.0785 30.6969 59.2273C30.1356 59.5249 29.6038 59.9714 29.1902 60.8047C29.1902 60.8047 31.081 61.519 32.3809 59.9416C32.4695 59.9416 32.5581 59.9714 32.6468 60.0011C32.6468 60.0904 32.6172 60.1797 32.5877 60.269C30.9333 60.8345 30.6969 62.5905 30.6969 62.5905C31.9082 62.5905 32.7354 62.1143 33.2376 61.5786V61.6678C32.7354 62.4417 32.7058 63.275 32.7058 63.3345C33.0604 63.3048 33.3853 63.2155 33.6808 63.0667C33.7399 63.156 33.7989 63.275 33.858 63.3643C33.858 63.3643 34.183 63.0964 34.4784 62.5905C34.5671 62.531 34.6261 62.4714 34.6852 62.3821C34.6852 62.3821 35.2465 62.5012 35.926 62.2929C35.926 62.531 35.926 62.7988 35.926 63.0667C35.926 63.0667 36.4874 62.9179 37.0487 62.5012C37.0191 62.65 36.9896 62.7988 36.9896 62.9476C36.9896 62.9476 37.7873 62.8881 38.5554 62.3821C38.3486 62.7988 38.2009 63.3643 38.2009 64.0488C38.2009 64.0488 39.6189 63.8107 40.4166 62.5012C40.4757 62.9179 40.6529 63.3941 41.0075 63.9C41.0075 63.9 41.6869 63.3345 41.9824 62.3821C42.4846 62.2036 43.1641 61.8762 43.6663 61.1916C43.6663 61.1916 43.6663 61.1916 43.6959 61.1916C43.6368 61.2809 43.5482 61.4 43.4595 61.519C43.3118 61.7274 43.2232 61.9357 43.1936 62.0845C42.5437 62.3821 41.8642 63.0072 41.5097 64.2572C41.5097 64.2572 43.3414 64.4357 44.464 62.8881C44.6117 62.7393 44.7594 62.5905 44.9071 62.4119C44.9367 62.4417 44.9662 62.4714 45.0253 62.5012L45.0844 62.4417C45.0844 62.4417 45.173 62.65 45.2321 62.7691C44.7594 63.1262 44.3163 63.7214 44.0504 64.6739C44.0504 64.6739 45.5866 64.7929 46.6797 63.6619C46.9751 63.9298 47.3592 64.2274 47.8614 64.4655C47.8614 64.4655 48.1273 63.7215 47.9205 62.8286C48.0978 62.9179 48.3046 62.9774 48.5409 63.0369C48.5409 63.0964 48.5114 63.156 48.4818 63.2155C48.5705 63.2155 48.6886 63.2155 48.8364 63.156C48.8954 63.156 48.925 63.1262 48.9545 63.0964C49.25 63.0964 49.5749 63.0964 49.9295 63.0667V63.156C49.9295 63.3643 49.9885 63.4536 50.1067 63.4833L50.4317 63.3643C50.6089 63.3048 50.7862 63.1857 50.993 63.0369C51.1112 63.3048 51.2589 63.6024 51.4657 63.9C51.4657 63.9 52.027 63.4536 52.2929 62.7393C52.352 62.8583 52.3815 62.9774 52.4111 63.0964C52.6474 62.9476 52.8838 62.65 53.1497 62.2333C53.4155 61.8167 53.5337 61.4297 53.5337 61.1321C53.5928 61.1916 53.711 61.2809 53.8291 61.3702C53.9473 61.4297 54.0359 61.4893 54.1541 61.519C54.4495 61.9059 54.8927 62.2631 55.5722 62.5607C55.5722 62.5607 55.6903 62.2929 55.7199 61.8762C56.3403 62.1143 56.8425 62.2631 56.9312 62.5607C57.138 63.275 57.4039 65.15 58.4969 65.7751C59.59 66.4001 63.3125 67.2334 64.0806 67.531C64.8487 67.7989 65.6759 69.3466 65.8827 70.2692C66.0895 71.1918 65.41 85.5076 64.9669 86.1326C64.6124 86.6088 63.7556 88.5731 62.9284 89.7934H38.0827L20.15 71.7276V38.5722L29.8106 28.8398V5.29772H59.7673C60.3582 6.48822 61.5694 7.29181 62.9875 7.29181C64.4056 7.29181 65.6168 6.48822 66.2077 5.26796C66.444 4.79176 66.5917 4.22627 66.5917 3.66078C66.5917 3.03577 66.444 2.47029 66.1781 1.96432C65.5873 0.803587 64.376 0.0297625 62.9875 0.0297625C61.599 0.0297625 60.4172 0.803587 59.8264 1.93456H26.4723V27.441L20.1796 33.7804L16.7821 37.2031V73.1859L36.7828 93.3351H50.9339V93.2458H121.926V38.6317H121.985V28.2148L121.926 28.1553L121.896 28.1255ZM74.982 4.91081C74.2729 4.91081 73.7116 4.34532 73.7116 3.63102C73.7116 2.91672 74.2729 2.35124 74.982 2.35124C75.691 2.35124 76.2523 2.91672 76.2523 3.63102C76.2523 4.34532 75.691 4.91081 74.982 4.91081ZM96.3416 37.2031C96.3416 37.2031 96.3416 37.2031 96.3711 37.1733C96.3121 37.2328 96.2825 37.2924 96.2234 37.3519C96.1348 37.3519 96.0462 37.3817 95.9871 37.4114C96.1053 37.3519 96.1939 37.2924 96.3121 37.2031H96.3416ZM81.0974 61.2809C80.9792 62.1143 80.7429 63.9595 80.5361 64.2572C80.2702 64.6739 78.7339 65.6858 77.375 65.4477C76.9614 65.3881 76.5773 65.2989 76.1932 65.2393C76.9023 64.8227 77.6113 64.3762 78.2908 63.8703C79.2953 63.1262 80.2406 62.1738 81.0974 61.2512V61.2809ZM77.5818 62.144C77.759 61.8167 77.8772 61.4595 77.9954 61.1024C78.1431 61.0428 78.2908 60.9833 78.4385 60.894C78.6158 61.1916 78.8521 61.4893 79.1771 61.8167C78.9998 62.025 78.8226 62.2631 78.6158 62.4714C78.2022 62.7691 77.759 63.0369 77.2568 63.1262C77.1386 63.1262 77.05 63.156 76.9318 63.1857C77.1682 62.8583 77.375 62.5309 77.5227 62.2036L77.5818 62.144ZM74.6275 63.5131C74.7752 62.8286 74.8933 62.1143 74.9524 61.4C74.982 61.0428 75.0115 60.6559 75.0115 60.269C75.4842 60.1797 75.9864 60.0011 76.4887 59.6142C76.6659 59.5249 76.8432 59.4059 77.05 59.2868C77.05 59.2868 77.05 59.3464 77.0795 59.3464C77.0204 59.5249 76.9909 59.7035 76.9318 59.8523C76.4591 60.1202 76.016 60.5369 75.6024 61.2214C75.6024 61.2214 75.8683 61.3107 76.2819 61.3702C75.9274 62.0845 75.4842 62.769 74.9524 63.3941C74.9524 63.3941 74.6865 63.6917 74.5388 63.8405C74.5684 63.7215 74.5979 63.6322 74.6275 63.5131ZM31.3173 50.4771C31.0514 50.4474 30.6674 50.4176 30.2538 50.4771C30.2242 50.4176 30.1356 50.3283 30.047 50.2093C30.2242 50.2093 30.4015 50.239 30.6083 50.239C30.6083 50.239 30.5787 50.001 30.4606 49.6736C30.7265 49.9712 31.081 50.2688 31.5832 50.4176C31.5241 50.4176 31.4355 50.4176 31.3764 50.4474L31.3173 50.4771ZM61.9239 2.91672C62.1603 2.58933 62.5443 2.35124 62.9875 2.35124C63.6965 2.35124 64.2578 2.91672 64.2578 3.63102C64.2578 4.34532 63.6965 4.91081 62.9875 4.91081C62.5443 4.91081 62.1603 4.70247 61.9239 4.34532C61.7762 4.13698 61.7171 3.89888 61.7171 3.63102C61.7171 3.36316 61.8058 3.12506 61.9239 2.91672ZM63.4306 59.7333C63.4306 59.7333 63.4602 59.9119 63.5193 60.0607C63.5193 60.269 63.4897 60.4773 63.4897 60.6857C63.4011 60.4178 63.2534 60.1202 63.017 59.8523C62.9875 59.7333 62.9579 59.644 62.9284 59.5249C63.0761 59.5845 63.2534 59.6738 63.4602 59.7333H63.4306ZM61.1854 59.9416C61.0672 60.1202 60.9195 60.3285 60.8308 60.5369C60.8308 60.3583 60.7718 60.1797 60.7422 60.0309V59.8523C60.7422 59.8523 61.0081 59.9118 61.1558 59.9118L61.1854 59.9416ZM60.0332 61.1024C60.0332 61.1024 59.8559 60.4476 59.2651 59.8821C59.3537 59.8226 59.5014 59.644 59.6787 59.4059C59.8559 59.5249 60.0332 59.6142 60.24 59.6738C60.3582 60.5369 60.3877 61.4297 60.5945 62.2929C60.624 62.4714 60.7422 62.9774 60.9195 63.4833C60.8308 63.4833 60.7127 63.4536 60.5945 63.4536C60.3877 63.3048 60.1514 63.156 59.9741 62.9476C59.5605 62.5309 59.2651 62.0845 58.9105 61.6381H58.9696C58.9696 61.6381 58.9401 61.4297 58.7924 61.1321C59.1469 61.1916 59.5605 61.1619 60.0332 61.1024ZM61.983 65.4774C60.624 65.7155 59.0878 64.7036 58.8219 64.2869C58.6447 64.0191 58.4379 62.5905 58.3197 61.6678H58.3492C58.3492 61.6678 58.4969 61.8464 58.556 61.9655C58.7628 62.2929 58.9696 62.65 59.206 62.9476C59.6787 63.5131 60.1514 63.8107 60.7718 64.1084C60.8604 64.1381 60.949 64.1976 61.0376 64.2274C61.3922 64.406 61.7762 64.4953 62.1012 64.6739C62.5443 64.8524 62.9875 65.0012 63.342 65.2393H63.3715C62.9284 65.2989 62.4853 65.3881 61.983 65.4774ZM64.4646 65.3584C64.1988 65.1203 63.9329 64.8822 63.667 64.6739C63.017 64.2274 62.3375 63.8703 61.599 63.6619C61.5399 63.5429 61.5103 63.4536 61.4808 63.3345C61.3922 63.0667 61.3035 62.8286 61.2444 62.5607C61.2149 62.4119 61.1854 62.2929 61.1558 62.144C61.4217 61.9655 61.7762 61.7274 62.1012 61.3702C62.3375 61.8167 62.6921 62.2929 63.2829 62.7095C63.4602 63.0369 63.6374 63.3643 63.8147 63.6917C64.3465 64.5846 64.9669 65.3882 65.735 66.0727C65.3214 65.7155 64.9078 65.4774 64.5237 65.3881L64.4646 65.3584ZM67.6258 65.5667H67.5076C67.5076 65.5667 67.478 65.5965 67.4485 65.5667H67.3599C66.9463 65.2691 66.5622 64.9119 66.2077 64.5846C65.2918 63.7512 64.4942 62.8881 63.9624 61.7571C63.9624 61.4893 63.992 61.1916 64.0215 60.894C64.4646 61.5785 65.3214 62.3226 66.769 62.4714C66.769 62.4714 66.6213 60.5666 64.6714 59.8821C64.7896 59.8821 64.9078 59.8821 65.026 59.8523C65.4691 60.2392 66.06 60.5666 66.8576 60.6262C66.8872 60.8047 66.9167 60.9535 66.9758 61.1321C67.1531 61.6381 67.4485 62.0845 67.5962 62.5607C67.803 63.1857 67.803 63.8405 67.8621 64.4655C67.6848 64.7929 67.6257 65.1798 67.5667 65.537L67.6258 65.5667ZM69.8415 63.4833C69.8415 63.8703 69.8119 64.2274 69.7233 64.5846C69.487 65.0012 69.1915 65.4179 68.9256 65.8048C68.9256 65.7155 68.9256 65.6263 68.9256 65.537C68.9256 65.3882 68.9256 65.2393 68.9256 65.2393C68.9847 64.8822 69.0143 64.4358 68.9256 64.0786C68.7484 63.2453 68.3348 62.4119 68.0098 61.6381C67.8621 61.2214 67.6848 60.8047 67.5667 60.3881C67.8621 60.0607 68.1871 59.5547 68.2166 58.8106C68.4234 59.4059 68.837 60.0309 69.6051 60.5964C69.6051 60.7452 69.6051 60.8643 69.6051 61.0131C69.6347 61.4893 69.7233 61.9655 69.8119 62.4119C69.871 62.7393 69.7528 63.1262 69.7528 63.4833H69.8415ZM71.5845 65.8048C71.5845 65.8048 71.4663 65.9834 71.3777 66.0429C71.3186 66.1024 71.2891 66.1322 71.23 66.1917C71.2595 65.7751 71.3777 65.3286 71.3777 65.1203C71.4959 64.1381 71.0527 63.156 71.1118 62.144C71.1414 61.2214 71.4073 60.2095 71.1709 59.2868C71.5254 59.4654 71.939 59.5845 72.4413 59.6142C72.4413 59.6142 72.4117 59.138 72.1163 58.5725C72.2935 58.4535 72.4708 58.3344 72.6776 58.1559C72.6481 58.5725 72.6776 59.0785 72.8844 59.6738C72.8844 59.6738 73.3866 59.4356 73.8593 58.9297C73.8593 59.0785 73.8298 59.2571 73.8298 59.4059C73.6525 59.6142 73.4753 59.8523 73.298 60.15C73.298 60.15 73.5048 60.2095 73.8003 60.269C73.8003 61.2512 73.7412 62.2036 73.298 63.0964C72.8253 64.0488 72.2345 65.0012 71.555 65.8048" fill="#24B34B"/>
</svg>
